<mxfile host="app.diagrams.net" agent="Mozilla/5.0 (Windows NT 10.0; Win64; x64) AppleWebKit/537.36 (KHTML, like Gecko) Chrome/140.0.0.0 Safari/537.36" version="28.2.5">
  <diagram name="Page-1" id="EJsXXt7HwOZ39qLEzVrE">
    <mxGraphModel dx="1042" dy="562" grid="0" gridSize="10" guides="1" tooltips="1" connect="1" arrows="1" fold="1" page="1" pageScale="1" pageWidth="850" pageHeight="1400" background="light-dark(#FFFFFF,#FFFFFF)" math="0" shadow="0">
      <root>
        <mxCell id="0" />
        <mxCell id="1" parent="0" />
        <mxCell id="rBJyrQqxG81KY4vbjo7R-1" value="" style="rounded=0;whiteSpace=wrap;html=1;fillColor=light-dark(#FFFFFF,#FFCE9F);strokeColor=light-dark(#000000,#FFB570);" parent="1" vertex="1">
          <mxGeometry x="377" y="193" width="120" height="46" as="geometry" />
        </mxCell>
        <mxCell id="rBJyrQqxG81KY4vbjo7R-2" value="Student" style="text;html=1;align=center;verticalAlign=middle;whiteSpace=wrap;rounded=0;fontColor=light-dark(#000000,#000000);fontFamily=Times New Roman;fontSize=20;" parent="1" vertex="1">
          <mxGeometry x="407" y="201" width="60" height="30" as="geometry" />
        </mxCell>
        <mxCell id="rBJyrQqxG81KY4vbjo7R-3" value="" style="rounded=0;whiteSpace=wrap;html=1;fillColor=light-dark(#FFFFFF,#FFCE9F);strokeColor=light-dark(#000000,#FFB570);" parent="1" vertex="1">
          <mxGeometry x="377" y="363" width="120" height="46" as="geometry" />
        </mxCell>
        <mxCell id="rBJyrQqxG81KY4vbjo7R-4" value="Feedback" style="text;html=1;align=center;verticalAlign=middle;whiteSpace=wrap;rounded=0;fontColor=light-dark(#000000,#000000);fontFamily=Times New Roman;fontSize=20;" parent="1" vertex="1">
          <mxGeometry x="407" y="371" width="60" height="30" as="geometry" />
        </mxCell>
        <mxCell id="rBJyrQqxG81KY4vbjo7R-5" value="" style="rhombus;whiteSpace=wrap;html=1;fillColor=light-dark(#FFFFFF,#FFE599);strokeColor=light-dark(#000000,#FFD966);" parent="1" vertex="1">
          <mxGeometry x="397" y="260" width="80" height="80" as="geometry" />
        </mxCell>
        <mxCell id="rBJyrQqxG81KY4vbjo7R-6" value="Submits" style="text;html=1;align=center;verticalAlign=middle;whiteSpace=wrap;rounded=0;fontColor=light-dark(#000000,#000000);fontFamily=Times New Roman;fontSize=15;" parent="1" vertex="1">
          <mxGeometry x="410" y="285" width="60" height="30" as="geometry" />
        </mxCell>
        <mxCell id="rBJyrQqxG81KY4vbjo7R-7" value="" style="endArrow=none;html=1;rounded=0;entryX=0.5;entryY=1;entryDx=0;entryDy=0;strokeColor=light-dark(#000000,#000000);" parent="1" target="rBJyrQqxG81KY4vbjo7R-1" edge="1">
          <mxGeometry width="50" height="50" relative="1" as="geometry">
            <mxPoint x="438" y="260" as="sourcePoint" />
            <mxPoint x="488" y="210" as="targetPoint" />
          </mxGeometry>
        </mxCell>
        <mxCell id="rBJyrQqxG81KY4vbjo7R-8" value="" style="endArrow=none;html=1;rounded=0;entryX=0.5;entryY=1;entryDx=0;entryDy=0;strokeColor=light-dark(#000000,#000000);" parent="1" edge="1">
          <mxGeometry width="50" height="50" relative="1" as="geometry">
            <mxPoint x="437.5" y="361" as="sourcePoint" />
            <mxPoint x="436.5" y="340" as="targetPoint" />
          </mxGeometry>
        </mxCell>
        <mxCell id="rBJyrQqxG81KY4vbjo7R-9" value="M" style="text;html=1;align=center;verticalAlign=middle;whiteSpace=wrap;rounded=0;fontColor=light-dark(#000000,#000000);fillColor=none;" parent="1" vertex="1">
          <mxGeometry x="397" y="237" width="60" height="30" as="geometry" />
        </mxCell>
        <mxCell id="rBJyrQqxG81KY4vbjo7R-11" value="o" style="text;html=1;align=center;verticalAlign=middle;whiteSpace=wrap;rounded=0;fontColor=light-dark(#000000,#000000);fillColor=none;" parent="1" vertex="1">
          <mxGeometry x="395" y="337" width="60" height="30" as="geometry" />
        </mxCell>
        <mxCell id="rBJyrQqxG81KY4vbjo7R-12" value="" style="ellipse;whiteSpace=wrap;html=1;fillColor=light-dark(#FFFFFF,#D4E1F5);strokeColor=light-dark(#000000,#7EA6E0);" parent="1" vertex="1">
          <mxGeometry x="213" y="107" width="90" height="46" as="geometry" />
        </mxCell>
        <mxCell id="rBJyrQqxG81KY4vbjo7R-14" value="" style="ellipse;whiteSpace=wrap;html=1;fillColor=light-dark(#FFFFFF,#D4E1F5);strokeColor=light-dark(#000000,#7EA6E0);" parent="1" vertex="1">
          <mxGeometry x="322" y="107" width="90" height="46" as="geometry" />
        </mxCell>
        <mxCell id="rBJyrQqxG81KY4vbjo7R-15" value="" style="ellipse;whiteSpace=wrap;html=1;fillColor=light-dark(#FFFFFF,#D4E1F5);strokeColor=light-dark(#000000,#7EA6E0);" parent="1" vertex="1">
          <mxGeometry x="433" y="107" width="90" height="46" as="geometry" />
        </mxCell>
        <mxCell id="rBJyrQqxG81KY4vbjo7R-16" value="" style="ellipse;whiteSpace=wrap;html=1;fillColor=light-dark(#FFFFFF,#D4E1F5);strokeColor=light-dark(#000000,#7EA6E0);" parent="1" vertex="1">
          <mxGeometry x="540" y="107" width="90" height="46" as="geometry" />
        </mxCell>
        <mxCell id="rBJyrQqxG81KY4vbjo7R-17" value="" style="endArrow=none;html=1;rounded=0;entryX=1;entryY=1;entryDx=0;entryDy=0;strokeColor=light-dark(#000000,#000000);" parent="1" target="rBJyrQqxG81KY4vbjo7R-12" edge="1">
          <mxGeometry width="50" height="50" relative="1" as="geometry">
            <mxPoint x="383" y="193" as="sourcePoint" />
            <mxPoint x="433" y="143" as="targetPoint" />
          </mxGeometry>
        </mxCell>
        <mxCell id="rBJyrQqxG81KY4vbjo7R-18" value="" style="endArrow=none;html=1;rounded=0;entryX=0.644;entryY=1;entryDx=0;entryDy=0;entryPerimeter=0;strokeColor=light-dark(#000000,#000000);" parent="1" target="rBJyrQqxG81KY4vbjo7R-14" edge="1">
          <mxGeometry width="50" height="50" relative="1" as="geometry">
            <mxPoint x="397" y="193" as="sourcePoint" />
            <mxPoint x="447" y="143" as="targetPoint" />
          </mxGeometry>
        </mxCell>
        <mxCell id="rBJyrQqxG81KY4vbjo7R-19" value="" style="endArrow=none;html=1;rounded=0;entryX=0;entryY=1;entryDx=0;entryDy=0;strokeColor=light-dark(#000000,#000000);" parent="1" target="rBJyrQqxG81KY4vbjo7R-16" edge="1">
          <mxGeometry width="50" height="50" relative="1" as="geometry">
            <mxPoint x="486" y="193" as="sourcePoint" />
            <mxPoint x="536" y="143" as="targetPoint" />
          </mxGeometry>
        </mxCell>
        <mxCell id="rBJyrQqxG81KY4vbjo7R-20" value="" style="endArrow=none;html=1;rounded=0;strokeColor=light-dark(#000000,#000000);" parent="1" target="rBJyrQqxG81KY4vbjo7R-15" edge="1">
          <mxGeometry width="50" height="50" relative="1" as="geometry">
            <mxPoint x="473" y="193" as="sourcePoint" />
            <mxPoint x="523" y="143" as="targetPoint" />
          </mxGeometry>
        </mxCell>
        <mxCell id="rBJyrQqxG81KY4vbjo7R-21" value="Sname" style="text;html=1;align=center;verticalAlign=middle;whiteSpace=wrap;rounded=0;fontColor=light-dark(#000000,#000000);fontFamily=Times New Roman;fontSize=16;" parent="1" vertex="1">
          <mxGeometry x="228" y="115" width="60" height="30" as="geometry" />
        </mxCell>
        <mxCell id="rBJyrQqxG81KY4vbjo7R-22" value="Rno" style="text;html=1;align=center;verticalAlign=middle;whiteSpace=wrap;rounded=0;fontColor=light-dark(#000000,#000000);fontFamily=Times New Roman;fontSize=16;" parent="1" vertex="1">
          <mxGeometry x="337" y="115" width="60" height="30" as="geometry" />
        </mxCell>
        <mxCell id="rBJyrQqxG81KY4vbjo7R-23" value="Class" style="text;html=1;align=center;verticalAlign=middle;whiteSpace=wrap;rounded=0;fontColor=light-dark(#000000,#000000);fontFamily=Times New Roman;fontSize=16;" parent="1" vertex="1">
          <mxGeometry x="448" y="115" width="60" height="30" as="geometry" />
        </mxCell>
        <mxCell id="rBJyrQqxG81KY4vbjo7R-24" value="Semester" style="text;html=1;align=center;verticalAlign=middle;whiteSpace=wrap;rounded=0;fontColor=light-dark(#000000,#000000);fontFamily=Times New Roman;fontSize=16;" parent="1" vertex="1">
          <mxGeometry x="555" y="115" width="60" height="30" as="geometry" />
        </mxCell>
        <mxCell id="rBJyrQqxG81KY4vbjo7R-29" value="" style="ellipse;whiteSpace=wrap;html=1;fillColor=light-dark(#FFFFFF,#D4E1F5);strokeColor=light-dark(#000000,#7EA6E0);" parent="1" vertex="1">
          <mxGeometry x="182" y="169" width="157" height="25" as="geometry" />
        </mxCell>
        <mxCell id="rBJyrQqxG81KY4vbjo7R-30" value="Clarity_Prof_Seema" style="text;html=1;align=center;verticalAlign=middle;whiteSpace=wrap;rounded=0;fontColor=light-dark(#000000,#000000);" parent="1" vertex="1">
          <mxGeometry x="233" y="166.5" width="60" height="30" as="geometry" />
        </mxCell>
        <mxCell id="rBJyrQqxG81KY4vbjo7R-31" value="" style="ellipse;whiteSpace=wrap;html=1;fillColor=light-dark(#FFFFFF,#D4E1F5);strokeColor=light-dark(#000000,#7EA6E0);" parent="1" vertex="1">
          <mxGeometry x="34" y="147" width="170" height="27" as="geometry" />
        </mxCell>
        <mxCell id="rBJyrQqxG81KY4vbjo7R-32" value="" style="ellipse;whiteSpace=wrap;html=1;fillColor=light-dark(#FFFFFF,#D4E1F5);strokeColor=light-dark(#000000,#7EA6E0);" parent="1" vertex="1">
          <mxGeometry x="14" y="178" width="157" height="25" as="geometry" />
        </mxCell>
        <mxCell id="rBJyrQqxG81KY4vbjo7R-33" value="" style="ellipse;whiteSpace=wrap;html=1;fillColor=light-dark(#FFFFFF,#D4E1F5);strokeColor=light-dark(#000000,#7EA6E0);" parent="1" vertex="1">
          <mxGeometry x="11" y="208" width="157" height="25" as="geometry" />
        </mxCell>
        <mxCell id="rBJyrQqxG81KY4vbjo7R-34" value="" style="ellipse;whiteSpace=wrap;html=1;fillColor=light-dark(#FFFFFF,#D4E1F5);strokeColor=light-dark(#000000,#7EA6E0);" parent="1" vertex="1">
          <mxGeometry x="9" y="273" width="167" height="25" as="geometry" />
        </mxCell>
        <mxCell id="rBJyrQqxG81KY4vbjo7R-35" value="" style="ellipse;whiteSpace=wrap;html=1;fillColor=light-dark(#FFFFFF,#D4E1F5);strokeColor=light-dark(#000000,#7EA6E0);" parent="1" vertex="1">
          <mxGeometry x="14" y="242" width="157" height="25" as="geometry" />
        </mxCell>
        <mxCell id="rBJyrQqxG81KY4vbjo7R-36" value="SubKnowledge_Prof_Seema" style="text;html=1;align=center;verticalAlign=middle;whiteSpace=wrap;rounded=0;fontColor=light-dark(#000000,#000000);" parent="1" vertex="1">
          <mxGeometry x="89" y="145.5" width="60" height="30" as="geometry" />
        </mxCell>
        <mxCell id="rBJyrQqxG81KY4vbjo7R-37" value="Interaction_Prof_Seema" style="text;html=1;align=center;verticalAlign=middle;whiteSpace=wrap;rounded=0;fontColor=light-dark(#000000,#000000);" parent="1" vertex="1">
          <mxGeometry x="62.5" y="175.5" width="60" height="30" as="geometry" />
        </mxCell>
        <mxCell id="rBJyrQqxG81KY4vbjo7R-38" value="DoubtSolving_Prof_Seema" style="text;html=1;align=center;verticalAlign=middle;whiteSpace=wrap;rounded=0;fontColor=light-dark(#000000,#000000);" parent="1" vertex="1">
          <mxGeometry x="62.5" y="270.5" width="60" height="30" as="geometry" />
        </mxCell>
        <mxCell id="rBJyrQqxG81KY4vbjo7R-41" value="Punctuality_Prof_Seema" style="text;html=1;align=center;verticalAlign=middle;whiteSpace=wrap;rounded=0;fontColor=light-dark(#000000,#000000);" parent="1" vertex="1">
          <mxGeometry x="59.5" y="205.5" width="60" height="30" as="geometry" />
        </mxCell>
        <mxCell id="rBJyrQqxG81KY4vbjo7R-42" value="Comments_Prof_Seema" style="text;html=1;align=center;verticalAlign=middle;whiteSpace=wrap;rounded=0;fontColor=light-dark(#000000,#000000);" parent="1" vertex="1">
          <mxGeometry x="59.5" y="239.5" width="60" height="30" as="geometry" />
        </mxCell>
        <mxCell id="rBJyrQqxG81KY4vbjo7R-43" value="" style="endArrow=none;html=1;rounded=0;strokeColor=light-dark(#000000,#000000);" parent="1" edge="1">
          <mxGeometry width="50" height="50" relative="1" as="geometry">
            <mxPoint x="168" y="172" as="sourcePoint" />
            <mxPoint x="376" y="404" as="targetPoint" />
          </mxGeometry>
        </mxCell>
        <mxCell id="rBJyrQqxG81KY4vbjo7R-44" value="" style="endArrow=none;html=1;rounded=0;entryX=0;entryY=1;entryDx=0;entryDy=0;strokeColor=light-dark(#000000,#000000);" parent="1" target="rBJyrQqxG81KY4vbjo7R-3" edge="1">
          <mxGeometry width="50" height="50" relative="1" as="geometry">
            <mxPoint x="166" y="195.5" as="sourcePoint" />
            <mxPoint x="216" y="145.5" as="targetPoint" />
          </mxGeometry>
        </mxCell>
        <mxCell id="rBJyrQqxG81KY4vbjo7R-45" value="" style="endArrow=none;html=1;rounded=0;entryX=0.062;entryY=1.07;entryDx=0;entryDy=0;entryPerimeter=0;strokeColor=light-dark(#000000,#000000);" parent="1" target="rBJyrQqxG81KY4vbjo7R-3" edge="1">
          <mxGeometry width="50" height="50" relative="1" as="geometry">
            <mxPoint x="158" y="228" as="sourcePoint" />
            <mxPoint x="208" y="178" as="targetPoint" />
          </mxGeometry>
        </mxCell>
        <mxCell id="rBJyrQqxG81KY4vbjo7R-46" value="" style="endArrow=none;html=1;rounded=0;strokeColor=light-dark(#000000,#000000);" parent="1" edge="1">
          <mxGeometry width="50" height="50" relative="1" as="geometry">
            <mxPoint x="160" y="260" as="sourcePoint" />
            <mxPoint x="383" y="411" as="targetPoint" />
          </mxGeometry>
        </mxCell>
        <mxCell id="rBJyrQqxG81KY4vbjo7R-47" value="" style="endArrow=none;html=1;rounded=0;strokeColor=light-dark(#000000,#000000);" parent="1" edge="1">
          <mxGeometry width="50" height="50" relative="1" as="geometry">
            <mxPoint x="158" y="294" as="sourcePoint" />
            <mxPoint x="384" y="411" as="targetPoint" />
          </mxGeometry>
        </mxCell>
        <mxCell id="rBJyrQqxG81KY4vbjo7R-48" value="" style="endArrow=none;html=1;rounded=0;entryX=0;entryY=0.75;entryDx=0;entryDy=0;strokeColor=light-dark(#000000,#000000);" parent="1" target="rBJyrQqxG81KY4vbjo7R-3" edge="1">
          <mxGeometry width="50" height="50" relative="1" as="geometry">
            <mxPoint x="201" y="189" as="sourcePoint" />
            <mxPoint x="251" y="139" as="targetPoint" />
          </mxGeometry>
        </mxCell>
        <mxCell id="rBJyrQqxG81KY4vbjo7R-49" value="" style="ellipse;whiteSpace=wrap;html=1;fillColor=light-dark(#FFFFFF,#D4E1F5);strokeColor=light-dark(#000000,#7EA6E0);" parent="1" vertex="1">
          <mxGeometry x="223" y="196.5" width="148" height="24" as="geometry" />
        </mxCell>
        <mxCell id="rBJyrQqxG81KY4vbjo7R-50" value="Clarity_Prof_Ashwini" style="text;html=1;align=center;verticalAlign=middle;whiteSpace=wrap;rounded=0;fontColor=light-dark(#000000,#000000);" parent="1" vertex="1">
          <mxGeometry x="267" y="193" width="60" height="30" as="geometry" />
        </mxCell>
        <mxCell id="rBJyrQqxG81KY4vbjo7R-51" value="" style="endArrow=none;html=1;rounded=0;entryX=0;entryY=0.5;entryDx=0;entryDy=0;strokeColor=light-dark(#000000,#000000);" parent="1" target="rBJyrQqxG81KY4vbjo7R-3" edge="1">
          <mxGeometry width="50" height="50" relative="1" as="geometry">
            <mxPoint x="250" y="216.5" as="sourcePoint" />
            <mxPoint x="300" y="166.5" as="targetPoint" />
          </mxGeometry>
        </mxCell>
        <mxCell id="rBJyrQqxG81KY4vbjo7R-53" value="" style="ellipse;whiteSpace=wrap;html=1;fillColor=light-dark(#FFFFFF,#D4E1F5);strokeColor=light-dark(#000000,#7EA6E0);" parent="1" vertex="1">
          <mxGeometry x="288" y="243.25" width="129" height="27.25" as="geometry" />
        </mxCell>
        <mxCell id="rBJyrQqxG81KY4vbjo7R-54" value="Interaction_Prof_Ashwini" style="text;html=1;align=center;verticalAlign=middle;whiteSpace=wrap;rounded=0;fontColor=light-dark(#000000,#000000);fontSize=10;" parent="1" vertex="1">
          <mxGeometry x="322.5" y="243.25" width="60" height="30" as="geometry" />
        </mxCell>
        <mxCell id="rBJyrQqxG81KY4vbjo7R-55" value="" style="endArrow=none;html=1;rounded=0;entryX=0.068;entryY=0.043;entryDx=0;entryDy=0;entryPerimeter=0;strokeColor=light-dark(#000000,#000000);" parent="1" target="rBJyrQqxG81KY4vbjo7R-3" edge="1">
          <mxGeometry width="50" height="50" relative="1" as="geometry">
            <mxPoint x="342" y="270.5" as="sourcePoint" />
            <mxPoint x="392" y="220.5" as="targetPoint" />
          </mxGeometry>
        </mxCell>
        <mxCell id="rBJyrQqxG81KY4vbjo7R-56" value="" style="ellipse;whiteSpace=wrap;html=1;fillColor=light-dark(#FFFFFF,#D4E1F5);strokeColor=light-dark(#000000,#7EA6E0);rotation=0;" parent="1" vertex="1">
          <mxGeometry x="7.5" y="304" width="161.5" height="23" as="geometry" />
        </mxCell>
        <mxCell id="rBJyrQqxG81KY4vbjo7R-57" value="" style="ellipse;whiteSpace=wrap;html=1;fillColor=light-dark(#FFFFFF,#D4E1F5);strokeColor=light-dark(#000000,#7EA6E0);rotation=0;" parent="1" vertex="1">
          <mxGeometry x="6.5" y="331" width="161.5" height="27" as="geometry" />
        </mxCell>
        <mxCell id="rBJyrQqxG81KY4vbjo7R-58" value="" style="ellipse;whiteSpace=wrap;html=1;fillColor=light-dark(#FFFFFF,#D4E1F5);strokeColor=light-dark(#000000,#7EA6E0);rotation=0;" parent="1" vertex="1">
          <mxGeometry x="7.5" y="363" width="161.5" height="27" as="geometry" />
        </mxCell>
        <mxCell id="rBJyrQqxG81KY4vbjo7R-59" value="" style="ellipse;whiteSpace=wrap;html=1;fillColor=light-dark(#FFFFFF,#D4E1F5);strokeColor=light-dark(#000000,#7EA6E0);rotation=0;" parent="1" vertex="1">
          <mxGeometry x="7.5" y="395" width="161.5" height="27" as="geometry" />
        </mxCell>
        <mxCell id="rBJyrQqxG81KY4vbjo7R-60" value="" style="ellipse;whiteSpace=wrap;html=1;fillColor=light-dark(#FFFFFF,#D4E1F5);strokeColor=light-dark(#000000,#7EA6E0);rotation=0;" parent="1" vertex="1">
          <mxGeometry x="6.5" y="425" width="161.5" height="27" as="geometry" />
        </mxCell>
        <mxCell id="rBJyrQqxG81KY4vbjo7R-61" value="SubKnowledge_Prof_Ashwini" style="text;html=1;align=center;verticalAlign=middle;whiteSpace=wrap;rounded=0;fontColor=light-dark(#000000,#000000);" parent="1" vertex="1">
          <mxGeometry x="59.5" y="300.5" width="60" height="30" as="geometry" />
        </mxCell>
        <mxCell id="rBJyrQqxG81KY4vbjo7R-62" value="DoubtSolving_Prof_Ashwini" style="text;html=1;align=center;verticalAlign=middle;whiteSpace=wrap;rounded=0;fontColor=light-dark(#000000,#000000);" parent="1" vertex="1">
          <mxGeometry x="58.25" y="329.5" width="60" height="30" as="geometry" />
        </mxCell>
        <mxCell id="rBJyrQqxG81KY4vbjo7R-63" value="Punctuality_Prof_Ashwini" style="text;html=1;align=center;verticalAlign=middle;whiteSpace=wrap;rounded=0;fontColor=light-dark(#000000,#000000);" parent="1" vertex="1">
          <mxGeometry x="57.25" y="361.5" width="60" height="30" as="geometry" />
        </mxCell>
        <mxCell id="rBJyrQqxG81KY4vbjo7R-64" value="Comments_Prof_Ashwini" style="text;html=1;align=center;verticalAlign=middle;whiteSpace=wrap;rounded=0;fontColor=light-dark(#000000,#000000);" parent="1" vertex="1">
          <mxGeometry x="57.25" y="393.5" width="60" height="30" as="geometry" />
        </mxCell>
        <mxCell id="rBJyrQqxG81KY4vbjo7R-65" value="Clarity_Mrs_Vaishali" style="text;html=1;align=center;verticalAlign=middle;whiteSpace=wrap;rounded=0;fontColor=light-dark(#000000,#000000);" parent="1" vertex="1">
          <mxGeometry x="57.25" y="423.5" width="60" height="30" as="geometry" />
        </mxCell>
        <mxCell id="rBJyrQqxG81KY4vbjo7R-66" value="" style="ellipse;whiteSpace=wrap;html=1;fillColor=light-dark(#FFFFFF,#D4E1F5);strokeColor=light-dark(#000000,#7EA6E0);rotation=0;" parent="1" vertex="1">
          <mxGeometry x="6.5" y="456" width="161.5" height="27" as="geometry" />
        </mxCell>
        <mxCell id="rBJyrQqxG81KY4vbjo7R-67" value="" style="ellipse;whiteSpace=wrap;html=1;fillColor=light-dark(#FFFFFF,#D4E1F5);strokeColor=light-dark(#000000,#7EA6E0);rotation=0;" parent="1" vertex="1">
          <mxGeometry x="6.5" y="486" width="161.5" height="27" as="geometry" />
        </mxCell>
        <mxCell id="rBJyrQqxG81KY4vbjo7R-68" value="" style="ellipse;whiteSpace=wrap;html=1;fillColor=light-dark(#FFFFFF,#D4E1F5);strokeColor=light-dark(#000000,#7EA6E0);rotation=0;" parent="1" vertex="1">
          <mxGeometry x="9.5" y="517" width="161.5" height="27" as="geometry" />
        </mxCell>
        <mxCell id="rBJyrQqxG81KY4vbjo7R-69" value="" style="ellipse;whiteSpace=wrap;html=1;fillColor=light-dark(#FFFFFF,#D4E1F5);strokeColor=light-dark(#000000,#7EA6E0);rotation=0;" parent="1" vertex="1">
          <mxGeometry x="11.75" y="548" width="161.5" height="27" as="geometry" />
        </mxCell>
        <mxCell id="rBJyrQqxG81KY4vbjo7R-70" value="" style="ellipse;whiteSpace=wrap;html=1;fillColor=light-dark(#FFFFFF,#D4E1F5);strokeColor=light-dark(#000000,#7EA6E0);rotation=0;" parent="1" vertex="1">
          <mxGeometry x="7.5" y="578" width="161.5" height="27" as="geometry" />
        </mxCell>
        <mxCell id="rBJyrQqxG81KY4vbjo7R-71" value="" style="ellipse;whiteSpace=wrap;html=1;fillColor=light-dark(#FFFFFF,#D4E1F5);strokeColor=light-dark(#000000,#7EA6E0);rotation=0;" parent="1" vertex="1">
          <mxGeometry x="7.5" y="608" width="161.5" height="27" as="geometry" />
        </mxCell>
        <mxCell id="rBJyrQqxG81KY4vbjo7R-72" value="" style="ellipse;whiteSpace=wrap;html=1;fillColor=light-dark(#FFFFFF,#D4E1F5);strokeColor=light-dark(#000000,#7EA6E0);rotation=0;" parent="1" vertex="1">
          <mxGeometry x="7.5" y="641" width="161.5" height="27" as="geometry" />
        </mxCell>
        <mxCell id="rBJyrQqxG81KY4vbjo7R-73" value="SubKnowledge_Mrs_Vaishali" style="text;html=1;align=center;verticalAlign=middle;whiteSpace=wrap;rounded=0;fontColor=light-dark(#000000,#000000);" parent="1" vertex="1">
          <mxGeometry x="58.25" y="454.5" width="60" height="30" as="geometry" />
        </mxCell>
        <mxCell id="rBJyrQqxG81KY4vbjo7R-74" value="Interaction_Mrs_Vaishali" style="text;html=1;align=center;verticalAlign=middle;whiteSpace=wrap;rounded=0;fontColor=light-dark(#000000,#000000);" parent="1" vertex="1">
          <mxGeometry x="57.25" y="484.5" width="60" height="30" as="geometry" />
        </mxCell>
        <mxCell id="rBJyrQqxG81KY4vbjo7R-75" value="DoubtSolving_Mrs_Vaishali" style="text;html=1;align=center;verticalAlign=middle;whiteSpace=wrap;rounded=0;fontColor=light-dark(#000000,#000000);" parent="1" vertex="1">
          <mxGeometry x="60.25" y="515.5" width="60" height="30" as="geometry" />
        </mxCell>
        <mxCell id="rBJyrQqxG81KY4vbjo7R-76" value="Punctuality_Mrs_Vaishali" style="text;html=1;align=center;verticalAlign=middle;whiteSpace=wrap;rounded=0;fontColor=light-dark(#000000,#000000);" parent="1" vertex="1">
          <mxGeometry x="62.5" y="545.5" width="60" height="30" as="geometry" />
        </mxCell>
        <mxCell id="rBJyrQqxG81KY4vbjo7R-77" value="Comments_Mrs_Vaishali" style="text;html=1;align=center;verticalAlign=middle;whiteSpace=wrap;rounded=0;fontColor=light-dark(#000000,#000000);" parent="1" vertex="1">
          <mxGeometry x="57.25" y="575" width="60" height="30" as="geometry" />
        </mxCell>
        <mxCell id="rBJyrQqxG81KY4vbjo7R-78" value="" style="ellipse;whiteSpace=wrap;html=1;fillColor=light-dark(#FFFFFF,#D4E1F5);strokeColor=light-dark(#000000,#7EA6E0);rotation=0;" parent="1" vertex="1">
          <mxGeometry x="6.5" y="672" width="161.5" height="27" as="geometry" />
        </mxCell>
        <mxCell id="rBJyrQqxG81KY4vbjo7R-79" value="" style="ellipse;whiteSpace=wrap;html=1;fillColor=light-dark(#FFFFFF,#D4E1F5);strokeColor=light-dark(#000000,#7EA6E0);rotation=0;" parent="1" vertex="1">
          <mxGeometry x="5" y="703" width="161.5" height="27" as="geometry" />
        </mxCell>
        <mxCell id="rBJyrQqxG81KY4vbjo7R-80" value="" style="ellipse;whiteSpace=wrap;html=1;fillColor=light-dark(#FFFFFF,#D4E1F5);strokeColor=light-dark(#000000,#7EA6E0);rotation=0;" parent="1" vertex="1">
          <mxGeometry x="6.5" y="733" width="161.5" height="27" as="geometry" />
        </mxCell>
        <mxCell id="rBJyrQqxG81KY4vbjo7R-81" value="" style="ellipse;whiteSpace=wrap;html=1;fillColor=light-dark(#FFFFFF,#D4E1F5);strokeColor=light-dark(#000000,#7EA6E0);rotation=0;" parent="1" vertex="1">
          <mxGeometry x="6.5" y="764" width="161.5" height="27" as="geometry" />
        </mxCell>
        <mxCell id="rBJyrQqxG81KY4vbjo7R-82" value="" style="ellipse;whiteSpace=wrap;html=1;fillColor=light-dark(#FFFFFF,#D4E1F5);strokeColor=light-dark(#000000,#7EA6E0);rotation=0;" parent="1" vertex="1">
          <mxGeometry x="6.5" y="794" width="161.5" height="27" as="geometry" />
        </mxCell>
        <mxCell id="rBJyrQqxG81KY4vbjo7R-83" value="" style="ellipse;whiteSpace=wrap;html=1;fillColor=light-dark(#FFFFFF,#D4E1F5);strokeColor=light-dark(#000000,#7EA6E0);rotation=0;" parent="1" vertex="1">
          <mxGeometry x="9.5" y="825" width="161.5" height="27" as="geometry" />
        </mxCell>
        <mxCell id="rBJyrQqxG81KY4vbjo7R-84" value="" style="ellipse;whiteSpace=wrap;html=1;fillColor=light-dark(#FFFFFF,#D4E1F5);strokeColor=light-dark(#000000,#7EA6E0);rotation=0;" parent="1" vertex="1">
          <mxGeometry x="7.5" y="855" width="161.5" height="27" as="geometry" />
        </mxCell>
        <mxCell id="rBJyrQqxG81KY4vbjo7R-85" value="Clarity_Mrs_Anita" style="text;html=1;align=center;verticalAlign=middle;whiteSpace=wrap;rounded=0;fontColor=light-dark(#000000,#000000);" parent="1" vertex="1">
          <mxGeometry x="53" y="605" width="60" height="30" as="geometry" />
        </mxCell>
        <mxCell id="rBJyrQqxG81KY4vbjo7R-86" value="SubKnowledge_Mrs_Anita" style="text;html=1;align=center;verticalAlign=middle;whiteSpace=wrap;rounded=0;fontColor=light-dark(#000000,#000000);" parent="1" vertex="1">
          <mxGeometry x="59.5" y="639.5" width="60" height="30" as="geometry" />
        </mxCell>
        <mxCell id="rBJyrQqxG81KY4vbjo7R-87" value="Interaction_Mrs_Anita" style="text;html=1;align=center;verticalAlign=middle;whiteSpace=wrap;rounded=0;fontColor=light-dark(#000000,#000000);" parent="1" vertex="1">
          <mxGeometry x="55.75" y="669" width="60" height="30" as="geometry" />
        </mxCell>
        <mxCell id="rBJyrQqxG81KY4vbjo7R-88" value="DoubtSolving_Mrs_Anita" style="text;html=1;align=center;verticalAlign=middle;whiteSpace=wrap;rounded=0;fontColor=light-dark(#000000,#000000);" parent="1" vertex="1">
          <mxGeometry x="53" y="701.5" width="60" height="30" as="geometry" />
        </mxCell>
        <mxCell id="rBJyrQqxG81KY4vbjo7R-89" value="Punctuality_Mrs_Anita" style="text;html=1;align=center;verticalAlign=middle;whiteSpace=wrap;rounded=0;fontColor=light-dark(#000000,#000000);" parent="1" vertex="1">
          <mxGeometry x="58.25" y="731.5" width="60" height="30" as="geometry" />
        </mxCell>
        <mxCell id="rBJyrQqxG81KY4vbjo7R-90" value="Comments_Mrs_Anita" style="text;html=1;align=center;verticalAlign=middle;whiteSpace=wrap;rounded=0;fontColor=light-dark(#000000,#000000);" parent="1" vertex="1">
          <mxGeometry x="55.75" y="764" width="60" height="30" as="geometry" />
        </mxCell>
        <mxCell id="rBJyrQqxG81KY4vbjo7R-91" value="" style="ellipse;whiteSpace=wrap;html=1;fillColor=light-dark(#FFFFFF,#D4E1F5);strokeColor=light-dark(#000000,#7EA6E0);rotation=0;" parent="1" vertex="1">
          <mxGeometry x="6.5" y="885" width="161.5" height="27" as="geometry" />
        </mxCell>
        <mxCell id="rBJyrQqxG81KY4vbjo7R-92" value="" style="ellipse;whiteSpace=wrap;html=1;fillColor=light-dark(#FFFFFF,#D4E1F5);strokeColor=light-dark(#000000,#7EA6E0);rotation=0;" parent="1" vertex="1">
          <mxGeometry x="6.5" y="915" width="161.5" height="27" as="geometry" />
        </mxCell>
        <mxCell id="rBJyrQqxG81KY4vbjo7R-93" value="" style="ellipse;whiteSpace=wrap;html=1;fillColor=light-dark(#FFFFFF,#D4E1F5);strokeColor=light-dark(#000000,#7EA6E0);rotation=0;fontColor=light-dark(#000000,#000000);" parent="1" vertex="1">
          <mxGeometry x="5" y="945" width="161.5" height="27" as="geometry" />
        </mxCell>
        <mxCell id="rBJyrQqxG81KY4vbjo7R-94" value="" style="ellipse;whiteSpace=wrap;html=1;fillColor=light-dark(#FFFFFF,#D4E1F5);strokeColor=light-dark(#000000,#7EA6E0);rotation=0;" parent="1" vertex="1">
          <mxGeometry x="9.5" y="975" width="161.5" height="27" as="geometry" />
        </mxCell>
        <mxCell id="rBJyrQqxG81KY4vbjo7R-95" value="" style="ellipse;whiteSpace=wrap;html=1;fillColor=light-dark(#FFFFFF,#D4E1F5);strokeColor=light-dark(#000000,#7EA6E0);rotation=0;" parent="1" vertex="1">
          <mxGeometry x="5" y="1005" width="161.5" height="27" as="geometry" />
        </mxCell>
        <mxCell id="rBJyrQqxG81KY4vbjo7R-96" value="" style="ellipse;whiteSpace=wrap;html=1;fillColor=light-dark(#FFFFFF,#D4E1F5);strokeColor=light-dark(#000000,#7EA6E0);rotation=0;" parent="1" vertex="1">
          <mxGeometry x="6.5" y="1035" width="161.5" height="27" as="geometry" />
        </mxCell>
        <mxCell id="rBJyrQqxG81KY4vbjo7R-97" value="Clarity_Mrs_Sakshi" style="text;html=1;align=center;verticalAlign=middle;whiteSpace=wrap;rounded=0;fontColor=light-dark(#000000,#000000);" parent="1" vertex="1">
          <mxGeometry x="58.25" y="791" width="60" height="30" as="geometry" />
        </mxCell>
        <mxCell id="rBJyrQqxG81KY4vbjo7R-98" value="SubKnowledge_Mrs_Sakshi" style="text;html=1;align=center;verticalAlign=middle;whiteSpace=wrap;rounded=0;fontColor=light-dark(#000000,#000000);" parent="1" vertex="1">
          <mxGeometry x="60.25" y="825" width="60" height="30" as="geometry" />
        </mxCell>
        <mxCell id="rBJyrQqxG81KY4vbjo7R-99" value="Interaction_Mrs_Sakshi" style="text;html=1;align=center;verticalAlign=middle;whiteSpace=wrap;rounded=0;fontColor=light-dark(#000000,#000000);" parent="1" vertex="1">
          <mxGeometry x="53" y="855" width="60" height="30" as="geometry" />
        </mxCell>
        <mxCell id="rBJyrQqxG81KY4vbjo7R-100" value="DoubtSolving_Mrs_Sakshi" style="text;html=1;align=center;verticalAlign=middle;whiteSpace=wrap;rounded=0;fontColor=light-dark(#000000,#000000);" parent="1" vertex="1">
          <mxGeometry x="53" y="885" width="60" height="30" as="geometry" />
        </mxCell>
        <mxCell id="rBJyrQqxG81KY4vbjo7R-101" value="Punctuality_Mrs_Sakshi" style="text;html=1;align=center;verticalAlign=middle;whiteSpace=wrap;rounded=0;fontColor=light-dark(#000000,#000000);" parent="1" vertex="1">
          <mxGeometry x="55.75" y="915" width="60" height="30" as="geometry" />
        </mxCell>
        <mxCell id="rBJyrQqxG81KY4vbjo7R-102" value="Comments_Mrs_Sakshi" style="text;html=1;align=center;verticalAlign=middle;whiteSpace=wrap;rounded=0;fontColor=light-dark(#000000,#000000);" parent="1" vertex="1">
          <mxGeometry x="53" y="945" width="60" height="30" as="geometry" />
        </mxCell>
        <mxCell id="rBJyrQqxG81KY4vbjo7R-103" value="" style="ellipse;whiteSpace=wrap;html=1;fillColor=light-dark(#FFFFFF,#D4E1F5);strokeColor=light-dark(#000000,#7EA6E0);rotation=0;" parent="1" vertex="1">
          <mxGeometry x="508" y="174" width="161.5" height="27" as="geometry" />
        </mxCell>
        <mxCell id="rBJyrQqxG81KY4vbjo7R-104" value="" style="ellipse;whiteSpace=wrap;html=1;fillColor=light-dark(#FFFFFF,#D4E1F5);strokeColor=light-dark(#000000,#7EA6E0);rotation=0;" parent="1" vertex="1">
          <mxGeometry x="669.5" y="153" width="161.5" height="27" as="geometry" />
        </mxCell>
        <mxCell id="rBJyrQqxG81KY4vbjo7R-105" value="" style="ellipse;whiteSpace=wrap;html=1;fillColor=light-dark(#FFFFFF,#D4E1F5);strokeColor=light-dark(#000000,#7EA6E0);rotation=0;" parent="1" vertex="1">
          <mxGeometry x="686" y="188" width="161.5" height="27" as="geometry" />
        </mxCell>
        <mxCell id="rBJyrQqxG81KY4vbjo7R-106" value="" style="ellipse;whiteSpace=wrap;html=1;fillColor=light-dark(#FFFFFF,#D4E1F5);strokeColor=light-dark(#000000,#7EA6E0);rotation=0;" parent="1" vertex="1">
          <mxGeometry x="684" y="223" width="161.5" height="27" as="geometry" />
        </mxCell>
        <mxCell id="rBJyrQqxG81KY4vbjo7R-107" value="" style="ellipse;whiteSpace=wrap;html=1;fillColor=light-dark(#FFFFFF,#D4E1F5);strokeColor=light-dark(#000000,#7EA6E0);rotation=0;" parent="1" vertex="1">
          <mxGeometry x="684" y="255" width="161.5" height="27" as="geometry" />
        </mxCell>
        <mxCell id="rBJyrQqxG81KY4vbjo7R-108" value="" style="ellipse;whiteSpace=wrap;html=1;fillColor=light-dark(#FFFFFF,#D4E1F5);strokeColor=light-dark(#000000,#7EA6E0);rotation=0;" parent="1" vertex="1">
          <mxGeometry x="684" y="285" width="161.5" height="27" as="geometry" />
        </mxCell>
        <mxCell id="rBJyrQqxG81KY4vbjo7R-109" value="" style="ellipse;whiteSpace=wrap;html=1;fillColor=light-dark(#FFFFFF,#D4E1F5);strokeColor=light-dark(#000000,#7EA6E0);rotation=0;" parent="1" vertex="1">
          <mxGeometry x="684" y="315" width="161.5" height="27" as="geometry" />
        </mxCell>
        <mxCell id="rBJyrQqxG81KY4vbjo7R-110" value="" style="ellipse;whiteSpace=wrap;html=1;fillColor=light-dark(#FFFFFF,#D4E1F5);strokeColor=light-dark(#000000,#7EA6E0);rotation=0;" parent="1" vertex="1">
          <mxGeometry x="681" y="347" width="161.5" height="27" as="geometry" />
        </mxCell>
        <mxCell id="rBJyrQqxG81KY4vbjo7R-111" value="" style="ellipse;whiteSpace=wrap;html=1;fillColor=light-dark(#FFFFFF,#D4E1F5);strokeColor=light-dark(#000000,#7EA6E0);rotation=0;" parent="1" vertex="1">
          <mxGeometry x="684" y="378" width="161.5" height="27" as="geometry" />
        </mxCell>
        <mxCell id="rBJyrQqxG81KY4vbjo7R-112" value="" style="ellipse;whiteSpace=wrap;html=1;fillColor=light-dark(#FFFFFF,#D4E1F5);strokeColor=light-dark(#000000,#7EA6E0);rotation=0;" parent="1" vertex="1">
          <mxGeometry x="684" y="409" width="161.5" height="27" as="geometry" />
        </mxCell>
        <mxCell id="rBJyrQqxG81KY4vbjo7R-113" value="" style="ellipse;whiteSpace=wrap;html=1;fillColor=light-dark(#FFFFFF,#D4E1F5);strokeColor=light-dark(#000000,#7EA6E0);rotation=0;" parent="1" vertex="1">
          <mxGeometry x="681" y="440" width="161.5" height="27" as="geometry" />
        </mxCell>
        <mxCell id="rBJyrQqxG81KY4vbjo7R-114" value="" style="ellipse;whiteSpace=wrap;html=1;fillColor=light-dark(#FFFFFF,#D4E1F5);strokeColor=light-dark(#000000,#7EA6E0);rotation=0;" parent="1" vertex="1">
          <mxGeometry x="684" y="470" width="161.5" height="27" as="geometry" />
        </mxCell>
        <mxCell id="rBJyrQqxG81KY4vbjo7R-115" value="" style="ellipse;whiteSpace=wrap;html=1;fillColor=light-dark(#FFFFFF,#D4E1F5);strokeColor=light-dark(#000000,#7EA6E0);rotation=0;" parent="1" vertex="1">
          <mxGeometry x="684" y="501" width="161.5" height="27" as="geometry" />
        </mxCell>
        <mxCell id="rBJyrQqxG81KY4vbjo7R-116" value="" style="ellipse;whiteSpace=wrap;html=1;fillColor=light-dark(#FFFFFF,#D4E1F5);strokeColor=light-dark(#000000,#7EA6E0);rotation=0;" parent="1" vertex="1">
          <mxGeometry x="684" y="532" width="161.5" height="27" as="geometry" />
        </mxCell>
        <mxCell id="rBJyrQqxG81KY4vbjo7R-117" value="Clarity_Mrs_Sonam" style="text;html=1;align=center;verticalAlign=middle;whiteSpace=wrap;rounded=0;fontColor=light-dark(#000000,#000000);" parent="1" vertex="1">
          <mxGeometry x="552" y="173" width="60" height="30" as="geometry" />
        </mxCell>
        <mxCell id="rBJyrQqxG81KY4vbjo7R-118" value="SubKnowledge_Mrs_Sonam" style="text;html=1;align=center;verticalAlign=middle;whiteSpace=wrap;rounded=0;fontColor=light-dark(#000000,#000000);" parent="1" vertex="1">
          <mxGeometry x="720.25" y="150" width="60" height="30" as="geometry" />
        </mxCell>
        <mxCell id="rBJyrQqxG81KY4vbjo7R-119" value="Interaction_Mrs_Sonam" style="text;html=1;align=center;verticalAlign=middle;whiteSpace=wrap;rounded=0;fontColor=light-dark(#000000,#000000);" parent="1" vertex="1">
          <mxGeometry x="736.75" y="186.5" width="60" height="30" as="geometry" />
        </mxCell>
        <mxCell id="rBJyrQqxG81KY4vbjo7R-120" value="DoubtSolving_Mrs_Sonam" style="text;html=1;align=center;verticalAlign=middle;whiteSpace=wrap;rounded=0;fontColor=light-dark(#000000,#000000);" parent="1" vertex="1">
          <mxGeometry x="731.75" y="221.5" width="60" height="30" as="geometry" />
        </mxCell>
        <mxCell id="rBJyrQqxG81KY4vbjo7R-121" value="Punctuality_Mrs_Sonam" style="text;html=1;align=center;verticalAlign=middle;whiteSpace=wrap;rounded=0;fontColor=light-dark(#000000,#000000);" parent="1" vertex="1">
          <mxGeometry x="736.75" y="253.5" width="60" height="30" as="geometry" />
        </mxCell>
        <mxCell id="rBJyrQqxG81KY4vbjo7R-122" value="Comments_Mrs_Sonam" style="text;html=1;align=center;verticalAlign=middle;whiteSpace=wrap;rounded=0;fontColor=light-dark(#000000,#000000);" parent="1" vertex="1">
          <mxGeometry x="731.75" y="283.5" width="60" height="30" as="geometry" />
        </mxCell>
        <mxCell id="rBJyrQqxG81KY4vbjo7R-123" value="Clarity_Mr_Pradosh" style="text;html=1;align=center;verticalAlign=middle;whiteSpace=wrap;rounded=0;fontColor=light-dark(#000000,#000000);" parent="1" vertex="1">
          <mxGeometry x="731.75" y="315" width="60" height="30" as="geometry" />
        </mxCell>
        <mxCell id="rBJyrQqxG81KY4vbjo7R-124" value="SubKnowledge_Mr_Pradosh" style="text;html=1;align=center;verticalAlign=middle;whiteSpace=wrap;rounded=0;fontColor=light-dark(#000000,#000000);" parent="1" vertex="1">
          <mxGeometry x="731.75" y="345.5" width="60" height="30" as="geometry" />
        </mxCell>
        <mxCell id="rBJyrQqxG81KY4vbjo7R-125" value="Interaction_Mr_Pradosh" style="text;html=1;align=center;verticalAlign=middle;whiteSpace=wrap;rounded=0;fontColor=light-dark(#000000,#000000);" parent="1" vertex="1">
          <mxGeometry x="731.75" y="375" width="60" height="30" as="geometry" />
        </mxCell>
        <mxCell id="rBJyrQqxG81KY4vbjo7R-126" value="DoubtSolving_Mr_Pradosh" style="text;html=1;align=center;verticalAlign=middle;whiteSpace=wrap;rounded=0;fontColor=light-dark(#000000,#000000);" parent="1" vertex="1">
          <mxGeometry x="731.75" y="407.5" width="60" height="30" as="geometry" />
        </mxCell>
        <mxCell id="rBJyrQqxG81KY4vbjo7R-127" value="Punctuality_Mr_Pradosh" style="text;html=1;align=center;verticalAlign=middle;whiteSpace=wrap;rounded=0;fontColor=light-dark(#000000,#000000);" parent="1" vertex="1">
          <mxGeometry x="728" y="438.5" width="60" height="30" as="geometry" />
        </mxCell>
        <mxCell id="rBJyrQqxG81KY4vbjo7R-128" value="Comments_Mr_Pradosh" style="text;html=1;align=center;verticalAlign=middle;whiteSpace=wrap;rounded=0;fontColor=light-dark(#000000,#000000);" parent="1" vertex="1">
          <mxGeometry x="728" y="468.5" width="60" height="30" as="geometry" />
        </mxCell>
        <mxCell id="rBJyrQqxG81KY4vbjo7R-129" value="" style="ellipse;whiteSpace=wrap;html=1;fillColor=light-dark(#FFFFFF,#D4E1F5);strokeColor=light-dark(#000000,#7EA6E0);rotation=0;" parent="1" vertex="1">
          <mxGeometry x="686" y="563" width="161.5" height="27" as="geometry" />
        </mxCell>
        <mxCell id="rBJyrQqxG81KY4vbjo7R-130" value="" style="ellipse;whiteSpace=wrap;html=1;fillColor=light-dark(#FFFFFF,#D4E1F5);strokeColor=light-dark(#000000,#7EA6E0);rotation=0;" parent="1" vertex="1">
          <mxGeometry x="684" y="596" width="161.5" height="27" as="geometry" />
        </mxCell>
        <mxCell id="rBJyrQqxG81KY4vbjo7R-131" value="" style="ellipse;whiteSpace=wrap;html=1;fillColor=light-dark(#FFFFFF,#D4E1F5);strokeColor=light-dark(#000000,#7EA6E0);rotation=0;" parent="1" vertex="1">
          <mxGeometry x="686" y="629" width="161.5" height="27" as="geometry" />
        </mxCell>
        <mxCell id="rBJyrQqxG81KY4vbjo7R-132" value="" style="ellipse;whiteSpace=wrap;html=1;fillColor=light-dark(#FFFFFF,#D4E1F5);strokeColor=light-dark(#000000,#7EA6E0);rotation=0;" parent="1" vertex="1">
          <mxGeometry x="686" y="662" width="161.5" height="27" as="geometry" />
        </mxCell>
        <mxCell id="rBJyrQqxG81KY4vbjo7R-133" value="" style="ellipse;whiteSpace=wrap;html=1;fillColor=light-dark(#FFFFFF,#D4E1F5);strokeColor=light-dark(#000000,#7EA6E0);rotation=0;" parent="1" vertex="1">
          <mxGeometry x="686" y="693" width="161.5" height="27" as="geometry" />
        </mxCell>
        <mxCell id="rBJyrQqxG81KY4vbjo7R-134" value="" style="ellipse;whiteSpace=wrap;html=1;fillColor=light-dark(#FFFFFF,#D4E1F5);strokeColor=light-dark(#000000,#7EA6E0);rotation=0;" parent="1" vertex="1">
          <mxGeometry x="686" y="724" width="161.5" height="27" as="geometry" />
        </mxCell>
        <mxCell id="rBJyrQqxG81KY4vbjo7R-135" value="" style="ellipse;whiteSpace=wrap;html=1;fillColor=light-dark(#FFFFFF,#D4E1F5);strokeColor=light-dark(#000000,#7EA6E0);rotation=0;" parent="1" vertex="1">
          <mxGeometry x="681" y="755" width="161.5" height="27" as="geometry" />
        </mxCell>
        <mxCell id="rBJyrQqxG81KY4vbjo7R-136" value="Clarity_Ms_Rupali" style="text;html=1;align=center;verticalAlign=middle;whiteSpace=wrap;rounded=0;fontColor=light-dark(#000000,#000000);" parent="1" vertex="1">
          <mxGeometry x="731.75" y="499.5" width="60" height="30" as="geometry" />
        </mxCell>
        <mxCell id="rBJyrQqxG81KY4vbjo7R-137" value="SubKnowledge_Ms_Rupali" style="text;html=1;align=center;verticalAlign=middle;whiteSpace=wrap;rounded=0;fontColor=light-dark(#000000,#000000);" parent="1" vertex="1">
          <mxGeometry x="734.75" y="529" width="60" height="30" as="geometry" />
        </mxCell>
        <mxCell id="rBJyrQqxG81KY4vbjo7R-138" value="Interaction_Ms_Rupali" style="text;html=1;align=center;verticalAlign=middle;whiteSpace=wrap;rounded=0;fontColor=light-dark(#000000,#000000);" parent="1" vertex="1">
          <mxGeometry x="731.75" y="560" width="60" height="30" as="geometry" />
        </mxCell>
        <mxCell id="rBJyrQqxG81KY4vbjo7R-139" value="DoubtSolving_Ms_Rupali" style="text;html=1;align=center;verticalAlign=middle;whiteSpace=wrap;rounded=0;fontColor=light-dark(#000000,#000000);" parent="1" vertex="1">
          <mxGeometry x="728" y="594.5" width="60" height="30" as="geometry" />
        </mxCell>
        <mxCell id="rBJyrQqxG81KY4vbjo7R-140" value="Punctuality_Ms_Rupali" style="text;html=1;align=center;verticalAlign=middle;whiteSpace=wrap;rounded=0;fontColor=light-dark(#000000,#000000);" parent="1" vertex="1">
          <mxGeometry x="736.75" y="626" width="60" height="30" as="geometry" />
        </mxCell>
        <mxCell id="rBJyrQqxG81KY4vbjo7R-141" value="Comments_Ms_Rupali" style="text;html=1;align=center;verticalAlign=middle;whiteSpace=wrap;rounded=0;fontColor=light-dark(#000000,#000000);" parent="1" vertex="1">
          <mxGeometry x="734.75" y="660.5" width="60" height="30" as="geometry" />
        </mxCell>
        <mxCell id="rBJyrQqxG81KY4vbjo7R-142" value="" style="ellipse;whiteSpace=wrap;html=1;fillColor=light-dark(#FFFFFF,#D4E1F5);strokeColor=light-dark(#000000,#7EA6E0);rotation=0;" parent="1" vertex="1">
          <mxGeometry x="684" y="788" width="161.5" height="27" as="geometry" />
        </mxCell>
        <mxCell id="rBJyrQqxG81KY4vbjo7R-143" value="" style="ellipse;whiteSpace=wrap;html=1;fillColor=light-dark(#FFFFFF,#D4E1F5);strokeColor=light-dark(#000000,#7EA6E0);rotation=0;" parent="1" vertex="1">
          <mxGeometry x="684" y="821" width="161.5" height="27" as="geometry" />
        </mxCell>
        <mxCell id="rBJyrQqxG81KY4vbjo7R-144" value="" style="ellipse;whiteSpace=wrap;html=1;fillColor=light-dark(#FFFFFF,#D4E1F5);strokeColor=light-dark(#000000,#7EA6E0);rotation=0;" parent="1" vertex="1">
          <mxGeometry x="681" y="855" width="161.5" height="27" as="geometry" />
        </mxCell>
        <mxCell id="rBJyrQqxG81KY4vbjo7R-145" value="" style="ellipse;whiteSpace=wrap;html=1;fillColor=light-dark(#FFFFFF,#D4E1F5);strokeColor=light-dark(#000000,#7EA6E0);rotation=0;" parent="1" vertex="1">
          <mxGeometry x="684" y="886.5" width="161.5" height="27" as="geometry" />
        </mxCell>
        <mxCell id="rBJyrQqxG81KY4vbjo7R-146" value="" style="ellipse;whiteSpace=wrap;html=1;fillColor=light-dark(#FFFFFF,#D4E1F5);strokeColor=light-dark(#000000,#7EA6E0);rotation=0;" parent="1" vertex="1">
          <mxGeometry x="684" y="918" width="161.5" height="27" as="geometry" />
        </mxCell>
        <mxCell id="rBJyrQqxG81KY4vbjo7R-147" value="" style="ellipse;whiteSpace=wrap;html=1;fillColor=light-dark(#FFFFFF,#D4E1F5);strokeColor=light-dark(#000000,#7EA6E0);rotation=0;" parent="1" vertex="1">
          <mxGeometry x="681" y="948" width="161.5" height="27" as="geometry" />
        </mxCell>
        <mxCell id="rBJyrQqxG81KY4vbjo7R-148" value="" style="ellipse;whiteSpace=wrap;html=1;fillColor=light-dark(#FFFFFF,#D4E1F5);strokeColor=light-dark(#000000,#7EA6E0);rotation=0;" parent="1" vertex="1">
          <mxGeometry x="686" y="978" width="161.5" height="27" as="geometry" />
        </mxCell>
        <mxCell id="rBJyrQqxG81KY4vbjo7R-149" value="" style="ellipse;whiteSpace=wrap;html=1;fillColor=light-dark(#FFFFFF,#D4E1F5);strokeColor=light-dark(#000000,#7EA6E0);rotation=0;" parent="1" vertex="1">
          <mxGeometry x="684" y="1011" width="161.5" height="27" as="geometry" />
        </mxCell>
        <mxCell id="rBJyrQqxG81KY4vbjo7R-150" value="" style="ellipse;whiteSpace=wrap;html=1;fillColor=light-dark(#FFFFFF,#D4E1F5);strokeColor=light-dark(#000000,#7EA6E0);rotation=0;" parent="1" vertex="1">
          <mxGeometry x="686" y="1040" width="161.5" height="27" as="geometry" />
        </mxCell>
        <mxCell id="rBJyrQqxG81KY4vbjo7R-151" value="" style="ellipse;whiteSpace=wrap;html=1;fillColor=light-dark(#FFFFFF,#D4E1F5);strokeColor=light-dark(#000000,#7EA6E0);rotation=0;" parent="1" vertex="1">
          <mxGeometry x="684" y="1071" width="161.5" height="27" as="geometry" />
        </mxCell>
        <mxCell id="rBJyrQqxG81KY4vbjo7R-152" value="" style="ellipse;whiteSpace=wrap;html=1;fillColor=light-dark(#FFFFFF,#D4E1F5);strokeColor=light-dark(#000000,#7EA6E0);rotation=0;" parent="1" vertex="1">
          <mxGeometry x="8.75" y="1067" width="161.5" height="27" as="geometry" />
        </mxCell>
        <mxCell id="rBJyrQqxG81KY4vbjo7R-153" value="Clarity_Ms_Maitri" style="text;html=1;align=center;verticalAlign=middle;whiteSpace=wrap;rounded=0;fontColor=light-dark(#000000,#000000);" parent="1" vertex="1">
          <mxGeometry x="734.75" y="690" width="60" height="30" as="geometry" />
        </mxCell>
        <mxCell id="rBJyrQqxG81KY4vbjo7R-154" value="SubKnowledge_Ms_Maitri" style="text;html=1;align=center;verticalAlign=middle;whiteSpace=wrap;rounded=0;fontColor=light-dark(#000000,#000000);" parent="1" vertex="1">
          <mxGeometry x="736.75" y="724" width="60" height="30" as="geometry" />
        </mxCell>
        <mxCell id="rBJyrQqxG81KY4vbjo7R-155" value="Interaction_Ms_Maitri" style="text;html=1;align=center;verticalAlign=middle;whiteSpace=wrap;rounded=0;fontColor=light-dark(#000000,#000000);" parent="1" vertex="1">
          <mxGeometry x="731.75" y="755" width="60" height="30" as="geometry" />
        </mxCell>
        <mxCell id="rBJyrQqxG81KY4vbjo7R-156" value="DoubtSolving_Ms_Maitri" style="text;html=1;align=center;verticalAlign=middle;whiteSpace=wrap;rounded=0;fontColor=light-dark(#000000,#000000);" parent="1" vertex="1">
          <mxGeometry x="731.75" y="786.5" width="60" height="30" as="geometry" />
        </mxCell>
        <mxCell id="rBJyrQqxG81KY4vbjo7R-157" value="Punctuality_Ms_Maitri" style="text;html=1;align=center;verticalAlign=middle;whiteSpace=wrap;rounded=0;fontColor=light-dark(#000000,#000000);" parent="1" vertex="1">
          <mxGeometry x="731.75" y="819.5" width="60" height="30" as="geometry" />
        </mxCell>
        <mxCell id="rBJyrQqxG81KY4vbjo7R-158" value="Comments_Ms_Maitri" style="text;html=1;align=center;verticalAlign=middle;whiteSpace=wrap;rounded=0;fontColor=light-dark(#000000,#000000);" parent="1" vertex="1">
          <mxGeometry x="739.75" y="852" width="60" height="30" as="geometry" />
        </mxCell>
        <mxCell id="rBJyrQqxG81KY4vbjo7R-159" value="Clarity_Mrs_Priya" style="text;html=1;align=center;verticalAlign=middle;whiteSpace=wrap;rounded=0;fontColor=light-dark(#000000,#000000);" parent="1" vertex="1">
          <mxGeometry x="734.75" y="883.5" width="60" height="30" as="geometry" />
        </mxCell>
        <mxCell id="rBJyrQqxG81KY4vbjo7R-160" value="SubKnowledge_Mrs_Priya" style="text;html=1;align=center;verticalAlign=middle;whiteSpace=wrap;rounded=0;fontColor=light-dark(#000000,#000000);" parent="1" vertex="1">
          <mxGeometry x="731.75" y="915" width="60" height="30" as="geometry" />
        </mxCell>
        <mxCell id="rBJyrQqxG81KY4vbjo7R-161" value="Interaction_Mrs_Priya" style="text;html=1;align=center;verticalAlign=middle;whiteSpace=wrap;rounded=0;fontColor=light-dark(#000000,#000000);" parent="1" vertex="1">
          <mxGeometry x="726" y="946.5" width="60" height="30" as="geometry" />
        </mxCell>
        <mxCell id="rBJyrQqxG81KY4vbjo7R-162" value="DoubtSolving_Mrs_Priya" style="text;html=1;align=center;verticalAlign=middle;whiteSpace=wrap;rounded=0;fontColor=light-dark(#000000,#000000);" parent="1" vertex="1">
          <mxGeometry x="739.75" y="976.5" width="60" height="30" as="geometry" />
        </mxCell>
        <mxCell id="rBJyrQqxG81KY4vbjo7R-164" value="Punctuality_Mrs_Priya" style="text;html=1;align=center;verticalAlign=middle;whiteSpace=wrap;rounded=0;fontColor=light-dark(#000000,#000000);" parent="1" vertex="1">
          <mxGeometry x="734.75" y="1009.5" width="60" height="30" as="geometry" />
        </mxCell>
        <mxCell id="rBJyrQqxG81KY4vbjo7R-165" value="Comments_Mrs_Priya" style="text;html=1;align=center;verticalAlign=middle;whiteSpace=wrap;rounded=0;fontColor=light-dark(#000000,#000000);" parent="1" vertex="1">
          <mxGeometry x="731.75" y="1038" width="60" height="30" as="geometry" />
        </mxCell>
        <mxCell id="rBJyrQqxG81KY4vbjo7R-182" style="edgeStyle=orthogonalEdgeStyle;rounded=0;orthogonalLoop=1;jettySize=auto;html=1;exitX=0.75;exitY=1;exitDx=0;exitDy=0;" parent="1" source="rBJyrQqxG81KY4vbjo7R-166" edge="1">
          <mxGeometry relative="1" as="geometry">
            <mxPoint x="773" y="1108.199951171875" as="targetPoint" />
          </mxGeometry>
        </mxCell>
        <mxCell id="rBJyrQqxG81KY4vbjo7R-166" value="Clarity_Ms_Abha" style="text;html=1;align=center;verticalAlign=middle;whiteSpace=wrap;rounded=0;fontColor=light-dark(#000000,#000000);" parent="1" vertex="1">
          <mxGeometry x="728" y="1069.5" width="60" height="30" as="geometry" />
        </mxCell>
        <mxCell id="rBJyrQqxG81KY4vbjo7R-167" value="SubKnowledge_Ms_Abha" style="text;html=1;align=center;verticalAlign=middle;whiteSpace=wrap;rounded=0;fontColor=light-dark(#000000,#000000);" parent="1" vertex="1">
          <mxGeometry x="55.75" y="975" width="60" height="30" as="geometry" />
        </mxCell>
        <mxCell id="rBJyrQqxG81KY4vbjo7R-168" value="Interaction_Ms_Abha" style="text;html=1;align=center;verticalAlign=middle;whiteSpace=wrap;rounded=0;fontColor=light-dark(#000000,#000000);" parent="1" vertex="1">
          <mxGeometry x="53" y="1002" width="60" height="30" as="geometry" />
        </mxCell>
        <mxCell id="rBJyrQqxG81KY4vbjo7R-169" value="DoubtSolving_Ms_Abha" style="text;html=1;align=center;verticalAlign=middle;whiteSpace=wrap;rounded=0;fontColor=light-dark(#000000,#000000);" parent="1" vertex="1">
          <mxGeometry x="55.75" y="1035" width="60" height="30" as="geometry" />
        </mxCell>
        <mxCell id="rBJyrQqxG81KY4vbjo7R-170" value="Punctuality_Ms_Abha" style="text;html=1;align=center;verticalAlign=middle;whiteSpace=wrap;rounded=0;fontColor=light-dark(#000000,#000000);" parent="1" vertex="1">
          <mxGeometry x="53" y="1065" width="60" height="30" as="geometry" />
        </mxCell>
        <mxCell id="rBJyrQqxG81KY4vbjo7R-171" value="" style="ellipse;whiteSpace=wrap;html=1;fillColor=light-dark(#FFFFFF,#D4E1F5);strokeColor=light-dark(#000000,#7EA6E0);rotation=0;" parent="1" vertex="1">
          <mxGeometry x="14.5" y="1099.5" width="161.5" height="27" as="geometry" />
        </mxCell>
        <mxCell id="rBJyrQqxG81KY4vbjo7R-172" value="" style="ellipse;whiteSpace=wrap;html=1;fillColor=light-dark(#FFFFFF,#D4E1F5);strokeColor=light-dark(#000000,#7EA6E0);rotation=0;" parent="1" vertex="1">
          <mxGeometry x="20.5" y="1133" width="161.5" height="27" as="geometry" />
        </mxCell>
        <mxCell id="rBJyrQqxG81KY4vbjo7R-173" value="" style="ellipse;whiteSpace=wrap;html=1;fillColor=light-dark(#FFFFFF,#D4E1F5);strokeColor=light-dark(#000000,#7EA6E0);rotation=0;" parent="1" vertex="1">
          <mxGeometry x="47" y="1175" width="161.5" height="27" as="geometry" />
        </mxCell>
        <mxCell id="rBJyrQqxG81KY4vbjo7R-174" value="" style="ellipse;whiteSpace=wrap;html=1;fillColor=light-dark(#FFFFFF,#D4E1F5);strokeColor=light-dark(#000000,#7EA6E0);rotation=0;" parent="1" vertex="1">
          <mxGeometry x="113" y="1211" width="161.5" height="27" as="geometry" />
        </mxCell>
        <mxCell id="rBJyrQqxG81KY4vbjo7R-175" value="" style="ellipse;whiteSpace=wrap;html=1;fillColor=light-dark(#FFFFFF,#D4E1F5);strokeColor=light-dark(#000000,#7EA6E0);rotation=0;" parent="1" vertex="1">
          <mxGeometry x="161" y="1247" width="161.5" height="27" as="geometry" />
        </mxCell>
        <mxCell id="rBJyrQqxG81KY4vbjo7R-176" value="" style="ellipse;whiteSpace=wrap;html=1;fillColor=light-dark(#FFFFFF,#D4E1F5);strokeColor=light-dark(#000000,#7EA6E0);rotation=0;" parent="1" vertex="1">
          <mxGeometry x="322" y="1277" width="161.5" height="27" as="geometry" />
        </mxCell>
        <mxCell id="rBJyrQqxG81KY4vbjo7R-177" value="" style="ellipse;whiteSpace=wrap;html=1;fillColor=light-dark(#FFFFFF,#D4E1F5);strokeColor=light-dark(#000000,#7EA6E0);rotation=0;" parent="1" vertex="1">
          <mxGeometry x="477" y="1253" width="161.5" height="27" as="geometry" />
        </mxCell>
        <mxCell id="rBJyrQqxG81KY4vbjo7R-178" value="" style="ellipse;whiteSpace=wrap;html=1;fillColor=light-dark(#FFFFFF,#D4E1F5);strokeColor=light-dark(#000000,#7EA6E0);rotation=0;" parent="1" vertex="1">
          <mxGeometry x="534" y="1220" width="161.5" height="27" as="geometry" />
        </mxCell>
        <mxCell id="rBJyrQqxG81KY4vbjo7R-183" style="edgeStyle=orthogonalEdgeStyle;rounded=0;orthogonalLoop=1;jettySize=auto;html=1;exitX=1;exitY=0;exitDx=0;exitDy=0;" parent="1" source="rBJyrQqxG81KY4vbjo7R-179" target="rBJyrQqxG81KY4vbjo7R-181" edge="1">
          <mxGeometry relative="1" as="geometry" />
        </mxCell>
        <mxCell id="rBJyrQqxG81KY4vbjo7R-179" value="" style="ellipse;whiteSpace=wrap;html=1;fillColor=light-dark(#FFFFFF,#D4E1F5);strokeColor=light-dark(#000000,#7EA6E0);rotation=0;" parent="1" vertex="1">
          <mxGeometry x="586" y="1184" width="161.5" height="27" as="geometry" />
        </mxCell>
        <mxCell id="rBJyrQqxG81KY4vbjo7R-180" value="" style="ellipse;whiteSpace=wrap;html=1;fillColor=light-dark(#FFFFFF,#D4E1F5);strokeColor=light-dark(#000000,#7EA6E0);rotation=0;" parent="1" vertex="1">
          <mxGeometry x="669.5" y="1114" width="161.5" height="27" as="geometry" />
        </mxCell>
        <mxCell id="rBJyrQqxG81KY4vbjo7R-181" value="" style="ellipse;whiteSpace=wrap;html=1;fillColor=light-dark(#FFFFFF,#D4E1F5);strokeColor=light-dark(#000000,#7EA6E0);rotation=0;" parent="1" vertex="1">
          <mxGeometry x="635.25" y="1151" width="161.5" height="27" as="geometry" />
        </mxCell>
        <mxCell id="rBJyrQqxG81KY4vbjo7R-184" value="Comments_Ms_Abha" style="text;html=1;align=center;verticalAlign=middle;whiteSpace=wrap;rounded=0;fontColor=light-dark(#000000,#000000);" parent="1" vertex="1">
          <mxGeometry x="65.25" y="1099.5" width="60" height="30" as="geometry" />
        </mxCell>
        <mxCell id="rBJyrQqxG81KY4vbjo7R-185" value="Library_Resources" style="text;html=1;align=center;verticalAlign=middle;whiteSpace=wrap;rounded=0;fontColor=light-dark(#000000,#000000);" parent="1" vertex="1">
          <mxGeometry x="65.25" y="1130" width="60" height="30" as="geometry" />
        </mxCell>
        <mxCell id="rBJyrQqxG81KY4vbjo7R-186" value="ClassroomEnvironment" style="text;html=1;align=center;verticalAlign=middle;whiteSpace=wrap;rounded=0;fontColor=light-dark(#000000,#000000);" parent="1" vertex="1">
          <mxGeometry x="97.75" y="1173.5" width="60" height="30" as="geometry" />
        </mxCell>
        <mxCell id="rBJyrQqxG81KY4vbjo7R-188" value="Computer/ITLabWiFi" style="text;html=1;align=center;verticalAlign=middle;whiteSpace=wrap;rounded=0;fontColor=light-dark(#000000,#000000);" parent="1" vertex="1">
          <mxGeometry x="153" y="1209.5" width="60" height="30" as="geometry" />
        </mxCell>
        <mxCell id="rBJyrQqxG81KY4vbjo7R-189" value="CleanlinessHygiene" style="text;html=1;align=center;verticalAlign=middle;whiteSpace=wrap;rounded=0;fontColor=light-dark(#000000,#000000);" parent="1" vertex="1">
          <mxGeometry x="207" y="1244" width="60" height="30" as="geometry" />
        </mxCell>
        <mxCell id="rBJyrQqxG81KY4vbjo7R-190" value="SportsExtracurricular" style="text;html=1;align=center;verticalAlign=middle;whiteSpace=wrap;rounded=0;fontColor=light-dark(#000000,#000000);" parent="1" vertex="1">
          <mxGeometry x="377" y="1275.5" width="60" height="30" as="geometry" />
        </mxCell>
        <mxCell id="rBJyrQqxG81KY4vbjo7R-191" value="FacilitiesSuggestions" style="text;html=1;align=center;verticalAlign=middle;whiteSpace=wrap;rounded=0;fontColor=light-dark(#000000,#000000);" parent="1" vertex="1">
          <mxGeometry x="526" y="1251.5" width="60" height="30" as="geometry" />
        </mxCell>
        <mxCell id="rBJyrQqxG81KY4vbjo7R-192" value="CollegeExperience" style="text;html=1;align=center;verticalAlign=middle;whiteSpace=wrap;rounded=0;fontColor=light-dark(#000000,#000000);" parent="1" vertex="1">
          <mxGeometry x="578.5" y="1217" width="60" height="30" as="geometry" />
        </mxCell>
        <mxCell id="rBJyrQqxG81KY4vbjo7R-193" value="CollegeRecommendation" style="text;html=1;align=center;verticalAlign=middle;whiteSpace=wrap;rounded=0;fontColor=light-dark(#000000,#000000);" parent="1" vertex="1">
          <mxGeometry x="636.75" y="1182.5" width="60" height="30" as="geometry" />
        </mxCell>
        <mxCell id="rBJyrQqxG81KY4vbjo7R-194" value="Fav_Aspects_College" style="text;html=1;align=center;verticalAlign=middle;whiteSpace=wrap;rounded=0;fontColor=light-dark(#000000,#000000);" parent="1" vertex="1">
          <mxGeometry x="681" y="1148" width="60" height="30" as="geometry" />
        </mxCell>
        <mxCell id="rBJyrQqxG81KY4vbjo7R-195" value="Suggestions" style="text;html=1;align=center;verticalAlign=middle;whiteSpace=wrap;rounded=0;fontColor=light-dark(#000000,#000000);" parent="1" vertex="1">
          <mxGeometry x="720.25" y="1111" width="60" height="30" as="geometry" />
        </mxCell>
        <mxCell id="Hfs2tq0BSyDH0aJjoQVM-1" value="" style="endArrow=none;html=1;rounded=0;strokeColor=light-dark(#000000,#000000);" edge="1" parent="1">
          <mxGeometry width="50" height="50" relative="1" as="geometry">
            <mxPoint x="168" y="317" as="sourcePoint" />
            <mxPoint x="375" y="407" as="targetPoint" />
          </mxGeometry>
        </mxCell>
        <mxCell id="Hfs2tq0BSyDH0aJjoQVM-2" value="" style="endArrow=none;html=1;rounded=0;entryX=0.068;entryY=0.913;entryDx=0;entryDy=0;entryPerimeter=0;strokeColor=light-dark(#000000,#000000);" edge="1" parent="1" target="rBJyrQqxG81KY4vbjo7R-3">
          <mxGeometry width="50" height="50" relative="1" as="geometry">
            <mxPoint x="166.5" y="348" as="sourcePoint" />
            <mxPoint x="216.5" y="298" as="targetPoint" />
          </mxGeometry>
        </mxCell>
        <mxCell id="Hfs2tq0BSyDH0aJjoQVM-3" value="" style="endArrow=none;html=1;rounded=0;strokeColor=light-dark(#000000,#000000);" edge="1" parent="1">
          <mxGeometry width="50" height="50" relative="1" as="geometry">
            <mxPoint x="169" y="375.5" as="sourcePoint" />
            <mxPoint x="376" y="408" as="targetPoint" />
          </mxGeometry>
        </mxCell>
        <mxCell id="Hfs2tq0BSyDH0aJjoQVM-4" value="" style="endArrow=none;html=1;rounded=0;strokeColor=light-dark(#000000,#000000);" edge="1" parent="1">
          <mxGeometry width="50" height="50" relative="1" as="geometry">
            <mxPoint x="168.75" y="409.5" as="sourcePoint" />
            <mxPoint x="380" y="406" as="targetPoint" />
          </mxGeometry>
        </mxCell>
        <mxCell id="Hfs2tq0BSyDH0aJjoQVM-5" value="" style="endArrow=none;html=1;rounded=0;strokeColor=light-dark(#000000,#000000);" edge="1" parent="1">
          <mxGeometry width="50" height="50" relative="1" as="geometry">
            <mxPoint x="168.75" y="436" as="sourcePoint" />
            <mxPoint x="380" y="408" as="targetPoint" />
          </mxGeometry>
        </mxCell>
        <mxCell id="Hfs2tq0BSyDH0aJjoQVM-6" value="" style="endArrow=none;html=1;rounded=0;strokeColor=light-dark(#000000,#000000);" edge="1" parent="1">
          <mxGeometry width="50" height="50" relative="1" as="geometry">
            <mxPoint x="166.5" y="463.5" as="sourcePoint" />
            <mxPoint x="381" y="407" as="targetPoint" />
          </mxGeometry>
        </mxCell>
        <mxCell id="Hfs2tq0BSyDH0aJjoQVM-7" value="" style="endArrow=none;html=1;rounded=0;strokeColor=light-dark(#000000,#000000);" edge="1" parent="1">
          <mxGeometry width="50" height="50" relative="1" as="geometry">
            <mxPoint x="166.5" y="494.5" as="sourcePoint" />
            <mxPoint x="378" y="409" as="targetPoint" />
          </mxGeometry>
        </mxCell>
        <mxCell id="Hfs2tq0BSyDH0aJjoQVM-8" value="" style="endArrow=none;html=1;rounded=0;strokeColor=light-dark(#000000,#000000);" edge="1" parent="1">
          <mxGeometry width="50" height="50" relative="1" as="geometry">
            <mxPoint x="170.25" y="528" as="sourcePoint" />
            <mxPoint x="382" y="410" as="targetPoint" />
          </mxGeometry>
        </mxCell>
        <mxCell id="Hfs2tq0BSyDH0aJjoQVM-9" value="" style="endArrow=none;html=1;rounded=0;strokeColor=light-dark(#000000,#000000);" edge="1" parent="1">
          <mxGeometry width="50" height="50" relative="1" as="geometry">
            <mxPoint x="166.5" y="555.5" as="sourcePoint" />
            <mxPoint x="385" y="407" as="targetPoint" />
          </mxGeometry>
        </mxCell>
        <mxCell id="Hfs2tq0BSyDH0aJjoQVM-10" value="" style="endArrow=none;html=1;rounded=0;strokeColor=light-dark(#000000,#000000);" edge="1" parent="1">
          <mxGeometry width="50" height="50" relative="1" as="geometry">
            <mxPoint x="163" y="585.5" as="sourcePoint" />
            <mxPoint x="386" y="408" as="targetPoint" />
          </mxGeometry>
        </mxCell>
        <mxCell id="Hfs2tq0BSyDH0aJjoQVM-11" value="" style="endArrow=none;html=1;rounded=0;strokeColor=light-dark(#000000,#000000);" edge="1" parent="1">
          <mxGeometry width="50" height="50" relative="1" as="geometry">
            <mxPoint x="161" y="613" as="sourcePoint" />
            <mxPoint x="386" y="409" as="targetPoint" />
          </mxGeometry>
        </mxCell>
        <mxCell id="Hfs2tq0BSyDH0aJjoQVM-12" value="" style="endArrow=none;html=1;rounded=0;entryX=0.092;entryY=1;entryDx=0;entryDy=0;entryPerimeter=0;strokeColor=light-dark(#000000,#000000);" edge="1" parent="1" target="rBJyrQqxG81KY4vbjo7R-3">
          <mxGeometry width="50" height="50" relative="1" as="geometry">
            <mxPoint x="161" y="649" as="sourcePoint" />
            <mxPoint x="211" y="599" as="targetPoint" />
          </mxGeometry>
        </mxCell>
        <mxCell id="Hfs2tq0BSyDH0aJjoQVM-13" value="" style="endArrow=none;html=1;rounded=0;entryX=0.082;entryY=0.965;entryDx=0;entryDy=0;entryPerimeter=0;strokeColor=light-dark(#000000,#000000);" edge="1" parent="1" target="rBJyrQqxG81KY4vbjo7R-3">
          <mxGeometry width="50" height="50" relative="1" as="geometry">
            <mxPoint x="157" y="679" as="sourcePoint" />
            <mxPoint x="207" y="629" as="targetPoint" />
          </mxGeometry>
        </mxCell>
        <mxCell id="Hfs2tq0BSyDH0aJjoQVM-14" value="" style="endArrow=none;html=1;rounded=0;entryX=0.108;entryY=1;entryDx=0;entryDy=0;entryPerimeter=0;strokeColor=light-dark(#000000,#000000);" edge="1" parent="1" target="rBJyrQqxG81KY4vbjo7R-3">
          <mxGeometry width="50" height="50" relative="1" as="geometry">
            <mxPoint x="157.75" y="709" as="sourcePoint" />
            <mxPoint x="207.75" y="659" as="targetPoint" />
          </mxGeometry>
        </mxCell>
        <mxCell id="Hfs2tq0BSyDH0aJjoQVM-15" value="" style="endArrow=none;html=1;rounded=0;strokeColor=light-dark(#000000,#000000);" edge="1" parent="1">
          <mxGeometry width="50" height="50" relative="1" as="geometry">
            <mxPoint x="157" y="736" as="sourcePoint" />
            <mxPoint x="390" y="411" as="targetPoint" />
          </mxGeometry>
        </mxCell>
        <mxCell id="Hfs2tq0BSyDH0aJjoQVM-16" value="" style="endArrow=none;html=1;rounded=0;entryX=0.142;entryY=1;entryDx=0;entryDy=0;entryPerimeter=0;strokeColor=light-dark(#000000,#000000);" edge="1" parent="1" target="rBJyrQqxG81KY4vbjo7R-3">
          <mxGeometry width="50" height="50" relative="1" as="geometry">
            <mxPoint x="153" y="770" as="sourcePoint" />
            <mxPoint x="203" y="720" as="targetPoint" />
          </mxGeometry>
        </mxCell>
        <mxCell id="Hfs2tq0BSyDH0aJjoQVM-17" value="" style="endArrow=none;html=1;rounded=0;entryX=0.182;entryY=0.948;entryDx=0;entryDy=0;entryPerimeter=0;strokeColor=light-dark(#000000,#000000);" edge="1" parent="1" target="rBJyrQqxG81KY4vbjo7R-3">
          <mxGeometry width="50" height="50" relative="1" as="geometry">
            <mxPoint x="157.75" y="801" as="sourcePoint" />
            <mxPoint x="207.75" y="751" as="targetPoint" />
          </mxGeometry>
        </mxCell>
        <mxCell id="Hfs2tq0BSyDH0aJjoQVM-18" value="" style="endArrow=none;html=1;rounded=0;entryX=0.195;entryY=1.017;entryDx=0;entryDy=0;entryPerimeter=0;strokeColor=light-dark(#000000,#000000);" edge="1" parent="1" target="rBJyrQqxG81KY4vbjo7R-3">
          <mxGeometry width="50" height="50" relative="1" as="geometry">
            <mxPoint x="157" y="831" as="sourcePoint" />
            <mxPoint x="207" y="781" as="targetPoint" />
          </mxGeometry>
        </mxCell>
        <mxCell id="Hfs2tq0BSyDH0aJjoQVM-19" value="" style="endArrow=none;html=1;rounded=0;entryX=0.25;entryY=1;entryDx=0;entryDy=0;strokeColor=light-dark(#000000,#000000);" edge="1" parent="1" target="rBJyrQqxG81KY4vbjo7R-3">
          <mxGeometry width="50" height="50" relative="1" as="geometry">
            <mxPoint x="161" y="864.5" as="sourcePoint" />
            <mxPoint x="407" y="544" as="targetPoint" />
          </mxGeometry>
        </mxCell>
        <mxCell id="Hfs2tq0BSyDH0aJjoQVM-20" value="" style="endArrow=none;html=1;rounded=0;strokeColor=light-dark(#000000,#000000);" edge="1" parent="1">
          <mxGeometry width="50" height="50" relative="1" as="geometry">
            <mxPoint x="163" y="893.5" as="sourcePoint" />
            <mxPoint x="412" y="411" as="targetPoint" />
          </mxGeometry>
        </mxCell>
        <mxCell id="Hfs2tq0BSyDH0aJjoQVM-21" value="" style="endArrow=none;html=1;rounded=0;strokeColor=light-dark(#000000,#000000);" edge="1" parent="1">
          <mxGeometry width="50" height="50" relative="1" as="geometry">
            <mxPoint x="161" y="923.5" as="sourcePoint" />
            <mxPoint x="417" y="411" as="targetPoint" />
          </mxGeometry>
        </mxCell>
        <mxCell id="Hfs2tq0BSyDH0aJjoQVM-22" value="" style="endArrow=none;html=1;rounded=0;entryX=0.375;entryY=1;entryDx=0;entryDy=0;entryPerimeter=0;strokeColor=light-dark(#000000,#000000);" edge="1" parent="1" target="rBJyrQqxG81KY4vbjo7R-3">
          <mxGeometry width="50" height="50" relative="1" as="geometry">
            <mxPoint x="160.5" y="953" as="sourcePoint" />
            <mxPoint x="360.5" y="608" as="targetPoint" />
          </mxGeometry>
        </mxCell>
        <mxCell id="Hfs2tq0BSyDH0aJjoQVM-23" value="" style="endArrow=none;html=1;rounded=0;entryX=0.422;entryY=0.983;entryDx=0;entryDy=0;entryPerimeter=0;strokeColor=light-dark(#000000,#000000);" edge="1" parent="1" target="rBJyrQqxG81KY4vbjo7R-3">
          <mxGeometry width="50" height="50" relative="1" as="geometry">
            <mxPoint x="163" y="983.5" as="sourcePoint" />
            <mxPoint x="332" y="666" as="targetPoint" />
          </mxGeometry>
        </mxCell>
        <mxCell id="Hfs2tq0BSyDH0aJjoQVM-24" value="" style="endArrow=none;html=1;rounded=0;entryX=0.5;entryY=1;entryDx=0;entryDy=0;strokeColor=light-dark(#000000,#000000);" edge="1" parent="1" target="rBJyrQqxG81KY4vbjo7R-3">
          <mxGeometry width="50" height="50" relative="1" as="geometry">
            <mxPoint x="163" y="1013.5" as="sourcePoint" />
            <mxPoint x="376" y="600" as="targetPoint" />
          </mxGeometry>
        </mxCell>
        <mxCell id="Hfs2tq0BSyDH0aJjoQVM-25" value="" style="endArrow=none;html=1;rounded=0;entryX=0.5;entryY=1;entryDx=0;entryDy=0;strokeColor=light-dark(#000000,#000000);" edge="1" parent="1" target="rBJyrQqxG81KY4vbjo7R-3">
          <mxGeometry width="50" height="50" relative="1" as="geometry">
            <mxPoint x="166.5" y="1043.5" as="sourcePoint" />
            <mxPoint x="216.5" y="993.5" as="targetPoint" />
          </mxGeometry>
        </mxCell>
        <mxCell id="Hfs2tq0BSyDH0aJjoQVM-26" value="" style="endArrow=none;html=1;rounded=0;entryX=0.5;entryY=1;entryDx=0;entryDy=0;strokeColor=light-dark(#000000,#000000);" edge="1" parent="1" target="rBJyrQqxG81KY4vbjo7R-3">
          <mxGeometry width="50" height="50" relative="1" as="geometry">
            <mxPoint x="168.75" y="1078.5" as="sourcePoint" />
            <mxPoint x="396" y="585" as="targetPoint" />
          </mxGeometry>
        </mxCell>
        <mxCell id="Hfs2tq0BSyDH0aJjoQVM-27" value="" style="endArrow=none;html=1;rounded=0;entryX=0.5;entryY=1;entryDx=0;entryDy=0;strokeColor=light-dark(#000000,#000000);" edge="1" parent="1" target="rBJyrQqxG81KY4vbjo7R-3">
          <mxGeometry width="50" height="50" relative="1" as="geometry">
            <mxPoint x="169" y="1105.5" as="sourcePoint" />
            <mxPoint x="219" y="1055.5" as="targetPoint" />
          </mxGeometry>
        </mxCell>
        <mxCell id="Hfs2tq0BSyDH0aJjoQVM-28" value="" style="endArrow=none;html=1;rounded=0;strokeColor=light-dark(#000000,#000000);" edge="1" parent="1">
          <mxGeometry width="50" height="50" relative="1" as="geometry">
            <mxPoint x="168.75" y="1138" as="sourcePoint" />
            <mxPoint x="438" y="411" as="targetPoint" />
          </mxGeometry>
        </mxCell>
        <mxCell id="Hfs2tq0BSyDH0aJjoQVM-29" value="" style="endArrow=none;html=1;rounded=0;entryX=0.5;entryY=1;entryDx=0;entryDy=0;strokeColor=light-dark(#000000,#000000);" edge="1" parent="1" target="rBJyrQqxG81KY4vbjo7R-3">
          <mxGeometry width="50" height="50" relative="1" as="geometry">
            <mxPoint x="176" y="1176.5" as="sourcePoint" />
            <mxPoint x="226" y="1126.5" as="targetPoint" />
          </mxGeometry>
        </mxCell>
        <mxCell id="Hfs2tq0BSyDH0aJjoQVM-30" value="" style="endArrow=none;html=1;rounded=0;entryX=0.5;entryY=1;entryDx=0;entryDy=0;strokeColor=light-dark(#000000,#000000);" edge="1" parent="1" target="rBJyrQqxG81KY4vbjo7R-3">
          <mxGeometry width="50" height="50" relative="1" as="geometry">
            <mxPoint x="204" y="1209.5" as="sourcePoint" />
            <mxPoint x="254" y="1159.5" as="targetPoint" />
          </mxGeometry>
        </mxCell>
        <mxCell id="Hfs2tq0BSyDH0aJjoQVM-31" value="" style="endArrow=none;html=1;rounded=0;entryX=0.5;entryY=1;entryDx=0;entryDy=0;strokeColor=light-dark(#000000,#000000);" edge="1" parent="1" target="rBJyrQqxG81KY4vbjo7R-3">
          <mxGeometry width="50" height="50" relative="1" as="geometry">
            <mxPoint x="272" y="1247" as="sourcePoint" />
            <mxPoint x="322" y="1197" as="targetPoint" />
          </mxGeometry>
        </mxCell>
        <mxCell id="Hfs2tq0BSyDH0aJjoQVM-32" value="" style="endArrow=none;html=1;rounded=0;entryX=0.5;entryY=1;entryDx=0;entryDy=0;strokeColor=light-dark(#000000,#000000);" edge="1" parent="1" target="rBJyrQqxG81KY4vbjo7R-4">
          <mxGeometry width="50" height="50" relative="1" as="geometry">
            <mxPoint x="337" y="1284" as="sourcePoint" />
            <mxPoint x="387" y="1234" as="targetPoint" />
          </mxGeometry>
        </mxCell>
        <mxCell id="Hfs2tq0BSyDH0aJjoQVM-33" value="" style="endArrow=none;html=1;rounded=0;strokeColor=light-dark(#000000,#000000);" edge="1" parent="1">
          <mxGeometry width="50" height="50" relative="1" as="geometry">
            <mxPoint x="480" y="1262.5" as="sourcePoint" />
            <mxPoint x="436" y="407" as="targetPoint" />
          </mxGeometry>
        </mxCell>
        <mxCell id="Hfs2tq0BSyDH0aJjoQVM-34" value="" style="endArrow=none;html=1;rounded=0;entryX=0.5;entryY=1;entryDx=0;entryDy=0;strokeColor=light-dark(#000000,#000000);" edge="1" parent="1" target="rBJyrQqxG81KY4vbjo7R-3">
          <mxGeometry width="50" height="50" relative="1" as="geometry">
            <mxPoint x="536" y="1230" as="sourcePoint" />
            <mxPoint x="586" y="1180" as="targetPoint" />
          </mxGeometry>
        </mxCell>
        <mxCell id="Hfs2tq0BSyDH0aJjoQVM-35" value="" style="endArrow=none;html=1;rounded=0;strokeColor=light-dark(#000000,#000000);" edge="1" parent="1">
          <mxGeometry width="50" height="50" relative="1" as="geometry">
            <mxPoint x="586.75" y="1195" as="sourcePoint" />
            <mxPoint x="438" y="409" as="targetPoint" />
          </mxGeometry>
        </mxCell>
        <mxCell id="Hfs2tq0BSyDH0aJjoQVM-36" value="" style="endArrow=none;html=1;rounded=0;exitX=1;exitY=0;exitDx=0;exitDy=0;strokeColor=light-dark(#000000,#000000);entryX=0;entryY=1;entryDx=0;entryDy=0;" edge="1" parent="1" source="rBJyrQqxG81KY4vbjo7R-3" target="rBJyrQqxG81KY4vbjo7R-104">
          <mxGeometry width="50" height="50" relative="1" as="geometry">
            <mxPoint x="636" y="230" as="sourcePoint" />
            <mxPoint x="686" y="180" as="targetPoint" />
          </mxGeometry>
        </mxCell>
        <mxCell id="Hfs2tq0BSyDH0aJjoQVM-37" value="" style="endArrow=none;html=1;rounded=0;exitX=0.833;exitY=0;exitDx=0;exitDy=0;exitPerimeter=0;strokeColor=light-dark(#000000,#000000);" edge="1" parent="1" source="rBJyrQqxG81KY4vbjo7R-3">
          <mxGeometry width="50" height="50" relative="1" as="geometry">
            <mxPoint x="528.5" y="251.5" as="sourcePoint" />
            <mxPoint x="578.5" y="201.5" as="targetPoint" />
          </mxGeometry>
        </mxCell>
        <mxCell id="Hfs2tq0BSyDH0aJjoQVM-38" value="" style="endArrow=none;html=1;rounded=0;exitX=1;exitY=0;exitDx=0;exitDy=0;strokeColor=light-dark(#000000,#000000);" edge="1" parent="1" source="rBJyrQqxG81KY4vbjo7R-3">
          <mxGeometry width="50" height="50" relative="1" as="geometry">
            <mxPoint x="638.5" y="255" as="sourcePoint" />
            <mxPoint x="688.5" y="205" as="targetPoint" />
          </mxGeometry>
        </mxCell>
        <mxCell id="Hfs2tq0BSyDH0aJjoQVM-39" value="" style="endArrow=none;html=1;rounded=0;exitX=1;exitY=0;exitDx=0;exitDy=0;strokeColor=light-dark(#000000,#000000);" edge="1" parent="1" source="rBJyrQqxG81KY4vbjo7R-3">
          <mxGeometry width="50" height="50" relative="1" as="geometry">
            <mxPoint x="635.25" y="289" as="sourcePoint" />
            <mxPoint x="685.25" y="239" as="targetPoint" />
          </mxGeometry>
        </mxCell>
        <mxCell id="Hfs2tq0BSyDH0aJjoQVM-40" value="" style="endArrow=none;html=1;rounded=0;exitX=1;exitY=0;exitDx=0;exitDy=0;strokeColor=light-dark(#000000,#000000);" edge="1" parent="1" source="rBJyrQqxG81KY4vbjo7R-3">
          <mxGeometry width="50" height="50" relative="1" as="geometry">
            <mxPoint x="631" y="319.5" as="sourcePoint" />
            <mxPoint x="681" y="269.5" as="targetPoint" />
          </mxGeometry>
        </mxCell>
        <mxCell id="Hfs2tq0BSyDH0aJjoQVM-41" value="" style="endArrow=none;html=1;rounded=0;exitX=1;exitY=0;exitDx=0;exitDy=0;strokeColor=light-dark(#000000,#000000);" edge="1" parent="1" source="rBJyrQqxG81KY4vbjo7R-3">
          <mxGeometry width="50" height="50" relative="1" as="geometry">
            <mxPoint x="634" y="350.5" as="sourcePoint" />
            <mxPoint x="684" y="300.5" as="targetPoint" />
          </mxGeometry>
        </mxCell>
        <mxCell id="Hfs2tq0BSyDH0aJjoQVM-42" value="" style="endArrow=none;html=1;rounded=0;exitX=0.942;exitY=0.043;exitDx=0;exitDy=0;exitPerimeter=0;strokeColor=light-dark(#000000,#000000);" edge="1" parent="1" source="rBJyrQqxG81KY4vbjo7R-3">
          <mxGeometry width="50" height="50" relative="1" as="geometry">
            <mxPoint x="634" y="378" as="sourcePoint" />
            <mxPoint x="684" y="328" as="targetPoint" />
          </mxGeometry>
        </mxCell>
        <mxCell id="Hfs2tq0BSyDH0aJjoQVM-43" value="" style="endArrow=none;html=1;rounded=0;exitX=1;exitY=0;exitDx=0;exitDy=0;strokeColor=light-dark(#000000,#000000);" edge="1" parent="1" source="rBJyrQqxG81KY4vbjo7R-3">
          <mxGeometry width="50" height="50" relative="1" as="geometry">
            <mxPoint x="631" y="409" as="sourcePoint" />
            <mxPoint x="681" y="359" as="targetPoint" />
          </mxGeometry>
        </mxCell>
        <mxCell id="Hfs2tq0BSyDH0aJjoQVM-44" value="" style="endArrow=none;html=1;rounded=0;exitX=1;exitY=0.25;exitDx=0;exitDy=0;strokeColor=light-dark(#000000,#000000);" edge="1" parent="1" source="rBJyrQqxG81KY4vbjo7R-3">
          <mxGeometry width="50" height="50" relative="1" as="geometry">
            <mxPoint x="635.25" y="441.5" as="sourcePoint" />
            <mxPoint x="685.25" y="391.5" as="targetPoint" />
          </mxGeometry>
        </mxCell>
        <mxCell id="Hfs2tq0BSyDH0aJjoQVM-45" value="" style="endArrow=none;html=1;rounded=0;exitX=1;exitY=0.25;exitDx=0;exitDy=0;strokeColor=light-dark(#000000,#000000);" edge="1" parent="1" source="rBJyrQqxG81KY4vbjo7R-3">
          <mxGeometry width="50" height="50" relative="1" as="geometry">
            <mxPoint x="635.25" y="472" as="sourcePoint" />
            <mxPoint x="685.25" y="422" as="targetPoint" />
          </mxGeometry>
        </mxCell>
        <mxCell id="Hfs2tq0BSyDH0aJjoQVM-46" value="" style="endArrow=none;html=1;rounded=0;exitX=1;exitY=0.25;exitDx=0;exitDy=0;strokeColor=light-dark(#000000,#000000);" edge="1" parent="1" source="rBJyrQqxG81KY4vbjo7R-3">
          <mxGeometry width="50" height="50" relative="1" as="geometry">
            <mxPoint x="631" y="504.5" as="sourcePoint" />
            <mxPoint x="681" y="454.5" as="targetPoint" />
          </mxGeometry>
        </mxCell>
        <mxCell id="Hfs2tq0BSyDH0aJjoQVM-47" value="" style="endArrow=none;html=1;rounded=0;exitX=1;exitY=0.25;exitDx=0;exitDy=0;strokeColor=light-dark(#000000,#000000);" edge="1" parent="1" source="rBJyrQqxG81KY4vbjo7R-3">
          <mxGeometry width="50" height="50" relative="1" as="geometry">
            <mxPoint x="634" y="533" as="sourcePoint" />
            <mxPoint x="684" y="483" as="targetPoint" />
          </mxGeometry>
        </mxCell>
        <mxCell id="Hfs2tq0BSyDH0aJjoQVM-48" value="" style="endArrow=none;html=1;rounded=0;exitX=1;exitY=0.25;exitDx=0;exitDy=0;strokeColor=light-dark(#000000,#000000);" edge="1" parent="1" source="rBJyrQqxG81KY4vbjo7R-3">
          <mxGeometry width="50" height="50" relative="1" as="geometry">
            <mxPoint x="635.25" y="563" as="sourcePoint" />
            <mxPoint x="685.25" y="513" as="targetPoint" />
          </mxGeometry>
        </mxCell>
        <mxCell id="Hfs2tq0BSyDH0aJjoQVM-49" value="" style="endArrow=none;html=1;rounded=0;exitX=1;exitY=0.5;exitDx=0;exitDy=0;strokeColor=light-dark(#000000,#000000);" edge="1" parent="1" source="rBJyrQqxG81KY4vbjo7R-3">
          <mxGeometry width="50" height="50" relative="1" as="geometry">
            <mxPoint x="634" y="594.5" as="sourcePoint" />
            <mxPoint x="684" y="544.5" as="targetPoint" />
          </mxGeometry>
        </mxCell>
        <mxCell id="Hfs2tq0BSyDH0aJjoQVM-50" value="" style="endArrow=none;html=1;rounded=0;exitX=1;exitY=0.5;exitDx=0;exitDy=0;strokeColor=light-dark(#000000,#000000);" edge="1" parent="1" source="rBJyrQqxG81KY4vbjo7R-3">
          <mxGeometry width="50" height="50" relative="1" as="geometry">
            <mxPoint x="636" y="625.5" as="sourcePoint" />
            <mxPoint x="686" y="575.5" as="targetPoint" />
          </mxGeometry>
        </mxCell>
        <mxCell id="Hfs2tq0BSyDH0aJjoQVM-51" value="" style="endArrow=none;html=1;rounded=0;exitX=1;exitY=0.5;exitDx=0;exitDy=0;strokeColor=light-dark(#000000,#000000);" edge="1" parent="1" source="rBJyrQqxG81KY4vbjo7R-3">
          <mxGeometry width="50" height="50" relative="1" as="geometry">
            <mxPoint x="638.5" y="655" as="sourcePoint" />
            <mxPoint x="688.5" y="605" as="targetPoint" />
          </mxGeometry>
        </mxCell>
        <mxCell id="Hfs2tq0BSyDH0aJjoQVM-52" value="" style="endArrow=none;html=1;rounded=0;exitX=1;exitY=0.5;exitDx=0;exitDy=0;strokeColor=light-dark(#000000,#000000);" edge="1" parent="1" source="rBJyrQqxG81KY4vbjo7R-3">
          <mxGeometry width="50" height="50" relative="1" as="geometry">
            <mxPoint x="645.5" y="685" as="sourcePoint" />
            <mxPoint x="695.5" y="635" as="targetPoint" />
          </mxGeometry>
        </mxCell>
        <mxCell id="Hfs2tq0BSyDH0aJjoQVM-53" value="" style="endArrow=none;html=1;rounded=0;exitX=1;exitY=0.5;exitDx=0;exitDy=0;strokeColor=light-dark(#000000,#000000);" edge="1" parent="1" source="rBJyrQqxG81KY4vbjo7R-3">
          <mxGeometry width="50" height="50" relative="1" as="geometry">
            <mxPoint x="650" y="718" as="sourcePoint" />
            <mxPoint x="700" y="668" as="targetPoint" />
          </mxGeometry>
        </mxCell>
        <mxCell id="Hfs2tq0BSyDH0aJjoQVM-54" value="" style="endArrow=none;html=1;rounded=0;exitX=1;exitY=0.5;exitDx=0;exitDy=0;strokeColor=light-dark(#000000,#000000);" edge="1" parent="1" source="rBJyrQqxG81KY4vbjo7R-3">
          <mxGeometry width="50" height="50" relative="1" as="geometry">
            <mxPoint x="649" y="750" as="sourcePoint" />
            <mxPoint x="699" y="700" as="targetPoint" />
          </mxGeometry>
        </mxCell>
        <mxCell id="Hfs2tq0BSyDH0aJjoQVM-55" value="" style="endArrow=none;html=1;rounded=0;exitX=1;exitY=0.5;exitDx=0;exitDy=0;strokeColor=light-dark(#000000,#000000);" edge="1" parent="1" source="rBJyrQqxG81KY4vbjo7R-3">
          <mxGeometry width="50" height="50" relative="1" as="geometry">
            <mxPoint x="646.75" y="780" as="sourcePoint" />
            <mxPoint x="696.75" y="730" as="targetPoint" />
          </mxGeometry>
        </mxCell>
        <mxCell id="Hfs2tq0BSyDH0aJjoQVM-57" value="" style="endArrow=none;html=1;rounded=0;exitX=1;exitY=0.5;exitDx=0;exitDy=0;entryX=0.046;entryY=0.341;entryDx=0;entryDy=0;entryPerimeter=0;strokeColor=light-dark(#000000,#000000);" edge="1" parent="1" source="rBJyrQqxG81KY4vbjo7R-3" target="rBJyrQqxG81KY4vbjo7R-135">
          <mxGeometry width="50" height="50" relative="1" as="geometry">
            <mxPoint x="651" y="807" as="sourcePoint" />
            <mxPoint x="701" y="757" as="targetPoint" />
          </mxGeometry>
        </mxCell>
        <mxCell id="Hfs2tq0BSyDH0aJjoQVM-59" value="" style="endArrow=none;html=1;rounded=0;entryX=1;entryY=0.5;entryDx=0;entryDy=0;strokeColor=light-dark(#000000,#000000);" edge="1" parent="1" target="rBJyrQqxG81KY4vbjo7R-3">
          <mxGeometry width="50" height="50" relative="1" as="geometry">
            <mxPoint x="689.75" y="797" as="sourcePoint" />
            <mxPoint x="739.75" y="747" as="targetPoint" />
          </mxGeometry>
        </mxCell>
        <mxCell id="Hfs2tq0BSyDH0aJjoQVM-60" value="" style="endArrow=none;html=1;rounded=0;entryX=1;entryY=0.75;entryDx=0;entryDy=0;strokeColor=light-dark(#000000,#000000);" edge="1" parent="1" target="rBJyrQqxG81KY4vbjo7R-3">
          <mxGeometry width="50" height="50" relative="1" as="geometry">
            <mxPoint x="695.5" y="826.5" as="sourcePoint" />
            <mxPoint x="745.5" y="776.5" as="targetPoint" />
          </mxGeometry>
        </mxCell>
        <mxCell id="Hfs2tq0BSyDH0aJjoQVM-61" value="" style="endArrow=none;html=1;rounded=0;entryX=1;entryY=0.75;entryDx=0;entryDy=0;strokeColor=light-dark(#000000,#000000);" edge="1" parent="1" target="rBJyrQqxG81KY4vbjo7R-3">
          <mxGeometry width="50" height="50" relative="1" as="geometry">
            <mxPoint x="691" y="863.5" as="sourcePoint" />
            <mxPoint x="741" y="813.5" as="targetPoint" />
          </mxGeometry>
        </mxCell>
        <mxCell id="Hfs2tq0BSyDH0aJjoQVM-62" value="" style="endArrow=none;html=1;rounded=0;strokeColor=light-dark(#000000,#000000);" edge="1" parent="1">
          <mxGeometry width="50" height="50" relative="1" as="geometry">
            <mxPoint x="689.75" y="895" as="sourcePoint" />
            <mxPoint x="499" y="407" as="targetPoint" />
          </mxGeometry>
        </mxCell>
        <mxCell id="Hfs2tq0BSyDH0aJjoQVM-63" value="" style="endArrow=none;html=1;rounded=0;entryX=1;entryY=1;entryDx=0;entryDy=0;strokeColor=light-dark(#000000,#000000);" edge="1" parent="1" target="rBJyrQqxG81KY4vbjo7R-3">
          <mxGeometry width="50" height="50" relative="1" as="geometry">
            <mxPoint x="686" y="928" as="sourcePoint" />
            <mxPoint x="736" y="878" as="targetPoint" />
          </mxGeometry>
        </mxCell>
        <mxCell id="Hfs2tq0BSyDH0aJjoQVM-64" value="" style="endArrow=none;html=1;rounded=0;entryX=1;entryY=1;entryDx=0;entryDy=0;strokeColor=light-dark(#000000,#000000);" edge="1" parent="1" target="rBJyrQqxG81KY4vbjo7R-3">
          <mxGeometry width="50" height="50" relative="1" as="geometry">
            <mxPoint x="684" y="960" as="sourcePoint" />
            <mxPoint x="734" y="910" as="targetPoint" />
          </mxGeometry>
        </mxCell>
        <mxCell id="Hfs2tq0BSyDH0aJjoQVM-65" value="" style="endArrow=none;html=1;rounded=0;entryX=0.928;entryY=1.087;entryDx=0;entryDy=0;entryPerimeter=0;strokeColor=light-dark(#000000,#000000);" edge="1" parent="1" target="rBJyrQqxG81KY4vbjo7R-3">
          <mxGeometry width="50" height="50" relative="1" as="geometry">
            <mxPoint x="686.75" y="990" as="sourcePoint" />
            <mxPoint x="736.75" y="940" as="targetPoint" />
          </mxGeometry>
        </mxCell>
        <mxCell id="Hfs2tq0BSyDH0aJjoQVM-66" value="" style="endArrow=none;html=1;rounded=0;strokeColor=light-dark(#000000,#000000);" edge="1" parent="1">
          <mxGeometry width="50" height="50" relative="1" as="geometry">
            <mxPoint x="686.75" y="1022" as="sourcePoint" />
            <mxPoint x="488" y="416" as="targetPoint" />
          </mxGeometry>
        </mxCell>
        <mxCell id="Hfs2tq0BSyDH0aJjoQVM-67" value="" style="endArrow=none;html=1;rounded=0;entryX=0.922;entryY=1;entryDx=0;entryDy=0;entryPerimeter=0;strokeColor=light-dark(#000000,#000000);" edge="1" parent="1" target="rBJyrQqxG81KY4vbjo7R-3">
          <mxGeometry width="50" height="50" relative="1" as="geometry">
            <mxPoint x="686" y="1052" as="sourcePoint" />
            <mxPoint x="736" y="1002" as="targetPoint" />
          </mxGeometry>
        </mxCell>
        <mxCell id="Hfs2tq0BSyDH0aJjoQVM-68" value="" style="endArrow=none;html=1;rounded=0;entryX=0.895;entryY=0.983;entryDx=0;entryDy=0;entryPerimeter=0;strokeColor=light-dark(#000000,#000000);" edge="1" parent="1" target="rBJyrQqxG81KY4vbjo7R-3">
          <mxGeometry width="50" height="50" relative="1" as="geometry">
            <mxPoint x="684.75" y="1082" as="sourcePoint" />
            <mxPoint x="734.75" y="1032" as="targetPoint" />
          </mxGeometry>
        </mxCell>
        <mxCell id="Hfs2tq0BSyDH0aJjoQVM-69" value="" style="endArrow=none;html=1;rounded=0;entryX=0.822;entryY=0.948;entryDx=0;entryDy=0;entryPerimeter=0;strokeColor=light-dark(#000000,#000000);" edge="1" parent="1" target="rBJyrQqxG81KY4vbjo7R-3">
          <mxGeometry width="50" height="50" relative="1" as="geometry">
            <mxPoint x="678" y="1121" as="sourcePoint" />
            <mxPoint x="728" y="1071" as="targetPoint" />
          </mxGeometry>
        </mxCell>
        <mxCell id="Hfs2tq0BSyDH0aJjoQVM-70" value="" style="endArrow=none;html=1;rounded=0;entryX=0.662;entryY=1.035;entryDx=0;entryDy=0;entryPerimeter=0;strokeColor=light-dark(#000000,#000000);" edge="1" parent="1" target="rBJyrQqxG81KY4vbjo7R-3">
          <mxGeometry width="50" height="50" relative="1" as="geometry">
            <mxPoint x="650" y="1157" as="sourcePoint" />
            <mxPoint x="700" y="1107" as="targetPoint" />
          </mxGeometry>
        </mxCell>
      </root>
    </mxGraphModel>
  </diagram>
</mxfile>
